<svg width="203" height="359" viewBox="0 0 203 359" fill="none" xmlns="http://www.w3.org/2000/svg">
<path d="M32.4834 61.8191C26.9745 91.3388 50.4358 103.651 62.855 106.117C74.4234 103.669 97.5661 92.4997 97.5891 67.4085C97.6121 42.3173 66.5562 12.8414 51.0254 1.2399C50.9879 10.339 39.3695 24.9194 32.4834 61.8191Z" fill="url(#paint0_linear_2022_873)"/>
<path d="M59.2215 60.7708C54.9887 55.4302 46.1858 43.6608 44.8369 39.3085" stroke="white"/>
<path d="M63.0594 105.152C58.5695 72.7677 61.2257 37.949 52.2172 4.54497" stroke="white"/>
<path d="M61.6147 89.6455C54.8353 84.4046 40.6598 72.3669 38.1928 66.1431" stroke="white"/>
<path d="M62.1919 95.8477C64.2043 95.29 78.0864 92.3521 86.4162 70.9576" stroke="white"/>
<path d="M60.9919 70.2783C64.2498 68.3151 73.3091 56.8675 75.974 44.3137" stroke="white"/>
<path d="M108.203 88.9797C83.8599 106.564 92.3648 131.657 99.6601 142.006C109.727 148.209 134.191 156.074 151.507 137.916C168.823 119.757 166.65 76.9954 163.4 57.8843C157.099 64.4492 138.631 66.9998 108.203 88.9797Z" fill="url(#paint1_linear_2022_873)"/>
<path d="M128.292 106.655C128.908 99.8681 130.646 85.274 132.67 81.1915" stroke="white"/>
<path d="M100.473 141.448C119.548 114.895 145.478 91.5065 161.983 61.1" stroke="white"/>
<path d="M110.118 129.22C108.82 120.75 106.852 102.257 109.356 96.0482" stroke="white"/>
<path d="M106.26 134.11C108.102 135.094 120.183 142.537 140.967 132.783" stroke="white"/>
<path d="M123.019 114.762C126.732 115.586 141.187 113.54 151.772 106.285" stroke="white"/>
<path d="M107.747 318.57C83.8644 298.942 95.2019 272.844 103.856 262.249C115.024 256.15 141.472 248.934 157.919 268.857C174.366 288.78 167.986 333.798 162.74 353.816C156.752 346.612 137.599 343.104 107.747 318.57Z" fill="url(#paint2_linear_2022_873)"/>
<path d="M130.541 300.809C130.537 307.996 130.965 323.47 132.699 327.867" stroke="white"/>
<path d="M104.657 262.874C122.148 291.73 147.14 317.552 161.562 350.361" stroke="white"/>
<path d="M113.615 276.199C111.441 285.078 107.601 304.501 109.636 311.162" stroke="white"/>
<path d="M110.032 270.869C112.061 269.913 125.463 262.594 146.358 273.804" stroke="white"/>
<path d="M125.781 292.023C129.76 291.317 144.745 294.115 155.168 302.238" stroke="white"/>
<path d="M71.4185 102.312C78.5221 107.915 92.1736 122.039 89.9497 133.717C87.1699 148.316 80.1584 152.172 79.4062 160.348" stroke="url(#paint3_linear_2022_873)" stroke-width="2"/>
<path d="M26.2117 140.378C26.4058 150.068 29.5707 169.818 40.6768 171.299C54.5594 173.151 61.8456 163.836 63.447 159.108" stroke="url(#paint4_linear_2022_873)" stroke-width="2"/>
<path d="M26.2117 140.378C26.4058 150.068 29.5707 169.818 40.6768 171.299C54.5594 173.151 61.8456 163.836 63.447 159.108" stroke="url(#paint5_linear_2022_873)" stroke-width="2"/>
<path d="M14.9997 139.644C21.0184 133.839 23.3336 120.797 23.7389 115.001C25.4732 102.212 36.5001 100.751 41.7967 101.62C52.5294 96.0709 78.7939 89.8567 97.9906 109.392C117.187 128.927 111.242 166.7 105.869 183.145C100.214 197.984 88.3744 205.659 83.1615 207.641C77.6938 221.462 64.9835 223.411 60.986 221.563C57.7881 220.084 51.9407 220.677 49.4167 221.159C39.6442 220.27 32.5901 207.812 30.2846 201.694C22.5098 200.397 9.41377 189.687 4.12691 179.592C-1.15994 169.496 7.47626 146.9 14.9997 139.644Z" fill="url(#paint6_linear_2022_873)"/>
<path d="M105.472 197.826C82.6754 222.73 56.5353 219.698 50.5611 211.971C47.9534 209.602 39.1533 200.226 24.8154 181.681C6.89298 158.499 51.7944 79.0713 87.4283 102.53C123.062 125.988 133.967 166.696 105.472 197.826Z" fill="#E57881"/>
<path fill-rule="evenodd" clip-rule="evenodd" d="M29.6123 201.561C36.7426 202.212 46.0842 201.324 56.4546 196.456C59.4781 195.081 67.9921 192.074 77.8607 191.052C86.3696 186.792 102.115 169.685 97.0263 135.332C95.7094 125.84 88.8763 104.968 72.0526 96.4864C80.839 97.6118 90.0236 101.284 97.9907 109.392C117.187 128.927 111.242 166.7 105.869 183.144C100.214 197.984 88.3745 205.659 83.1616 207.641C77.694 221.462 64.9836 223.411 60.9862 221.562C57.7882 220.084 51.9408 220.677 49.4168 221.158C39.6444 220.27 32.5902 207.812 30.2847 201.694C30.0647 201.657 29.8405 201.613 29.6123 201.561Z" fill="#ECABA3"/>
<path d="M60.8502 183.623C58.2654 180.799 48.0383 171.784 43.2479 167.629C46.9909 167.76 55.1434 161.552 55.8754 160.552C56.6075 159.552 70.4134 142.605 70.4821 141.24L68.1646 187.296C66.8035 187.249 63.4351 186.447 60.8502 183.623Z" fill="url(#paint7_linear_2022_873)"/>
<ellipse cx="16.3962" cy="14.9812" rx="16.3962" ry="14.9812" transform="matrix(-0.0502545 0.998737 0.999391 0.0348992 27.7991 129.155)" fill="url(#paint8_linear_2022_873)"/>
<path d="M42.5992 145.353C40.2558 148.415 40.7256 152.585 43.4908 154.692C46.256 156.798 50.412 156.151 52.7553 153.089C55.0984 150.027 54.6287 145.858 51.8639 143.751C49.0988 141.645 44.9428 142.291 42.5992 145.353Z" fill="#EA8994" stroke="url(#paint9_linear_2022_873)" stroke-width="2"/>
<path d="M48.9616 135.362C44.867 130.024 37.8194 130.985 34.8074 132.133C36.1409 130.471 40.431 127.408 46.923 128.455C53.4151 129.502 62.7756 138.578 63.336 140.99C63.8964 143.402 60.8823 149.106 55.452 155.41C47.6651 164.45 37.057 161.945 37.057 161.945C32.6506 161.449 28.5016 155.836 28.2644 153.777C28.0745 152.13 28.9116 152.205 29.3539 152.448C29.5396 155.531 34.5408 157.756 37.2286 158.533C39.9165 159.31 46.1788 156.795 49.0555 153.82C51.9322 150.844 54.0799 142.034 48.9616 135.362Z" fill="url(#paint10_linear_2022_873)"/>
<path d="M53.9235 111.271C53.5026 108.795 56.8688 106.931 59.591 107.026C62.3132 107.121 69.7993 107.382 79.2038 116.938C89.9751 127.883 88.6937 138.344 86.4403 142.481C84.0678 146.727 79.0974 156.988 78.1959 164.065C77.2944 171.142 69.7048 179.261 66.0227 182.436C65.4384 182.758 63.9776 182.433 62.8088 178.565C61.6399 174.696 66.4475 158.187 68.9974 150.415C58.1397 164.928 54.647 165.956 48.5313 167.755L48.3517 167.807C43.3693 169.274 35.2354 164.274 33.3311 161.473C35.9503 163.615 40.9764 163.685 45.8698 162.936C57.1673 161.208 62.7382 146.096 66.3641 141.78C69.99 137.463 74.0077 132.136 72.0893 122.841C70.5545 115.406 64.0116 114.015 60.9319 114.249C58.7711 114.288 54.3443 113.746 53.9235 111.271Z" fill="#F2B9AE"/>
<path d="M17.0278 183.46C5.80102 176.248 10.1517 150.753 27.0858 139.383C19.8046 175.697 51.2068 188.413 59.2906 183.569C65.7577 179.694 81.6545 179.451 88.7946 179.815C86.5651 181.218 82.0891 184.365 82.0204 185.73C68.4548 197.901 32.217 193.218 17.0278 183.46Z" fill="#F2B9AE"/>
<path d="M59.9481 106.697C65.5288 106.436 77.7917 108.413 82.1972 118.41C87.7042 130.905 87.5528 127.141 88.3645 138.105" stroke="url(#paint11_linear_2022_873)"/>
<path d="M71.6863 110.524C82.0116 115.328 90.8325 136.483 84.1037 155.044C77.3748 173.606 75.3332 173.535 68.2015 179.779" stroke="url(#paint12_linear_2022_873)"/>
<path d="M51.9526 143.669C51.5063 152.539 48.2722 155.843 43.7456 157.736C39.219 159.628 28.2272 161.295 26.8722 147.577" stroke="url(#paint13_linear_2022_873)"/>
<path d="M51.9526 143.669C51.5063 152.539 48.2722 155.843 43.7456 157.736C39.219 159.628 28.2272 161.295 26.8722 147.577" stroke="url(#paint14_linear_2022_873)"/>
<path d="M51.9526 143.669C51.5063 152.539 48.2722 155.843 43.7456 157.736C39.219 159.628 28.2272 161.295 26.8722 147.577" stroke="url(#paint15_linear_2022_873)"/>
<path d="M46.3429 133.22C56.0705 143.129 53.4743 152.949 45.1756 156.419C36.8768 159.888 28.8767 155.166 27.5217 141.448" stroke="url(#paint16_linear_2022_873)"/>
<path d="M25.8376 141.047C24.0676 142.353 7.1477 160.217 11.5308 174.723C15.914 189.23 37.7915 194.779 56.9671 193.056" stroke="url(#paint17_linear_2022_873)"/>
<path d="M17.0864 152.362C3.32592 181.956 36.5853 190.304 51.5218 192.867C64.0261 195.012 67.3148 183.849 89.367 179.151" stroke="white"/>
<path d="M30.2506 202.376C36.0188 214.197 53.1717 233.251 75.6384 214.897C103.722 191.955 109.41 180.534 110.402 167.582" stroke="url(#paint18_linear_2022_873)"/>
<path d="M76.0994 97.3495C80.7774 99.2217 102.912 99.6529 110.658 128.631C116.854 151.813 108.208 179.581 103.11 190.567" stroke="url(#paint19_linear_2022_873)"/>
<path d="M40.2192 166.84C43.3483 170.139 53.1678 172.35 67.4129 154.803M33.6368 162.167C38.3633 169.851 61.2273 176.118 73.2068 134.5" stroke="url(#paint20_linear_2022_873)"/>
<path d="M79.4407 296.554C85.3325 291.907 96.6551 280.192 94.8106 270.506C92.505 258.398 86.6897 255.2 86.0657 248.418" stroke="url(#paint21_linear_2022_873)" stroke-width="2"/>
<path d="M41.946 264.982C42.1071 256.945 44.7321 240.564 53.9435 239.335C65.4579 237.799 71.5011 245.525 72.8293 249.447" stroke="url(#paint22_linear_2022_873)" stroke-width="2"/>
<path d="M41.946 264.982C42.1071 256.945 44.7321 240.564 53.9435 239.335C65.4579 237.799 71.5011 245.525 72.8293 249.447" stroke="url(#paint23_linear_2022_873)" stroke-width="2"/>
<path d="M32.6468 265.59C37.6388 270.405 39.559 281.222 39.8952 286.029C41.3336 296.637 50.4794 297.848 54.8725 297.128C63.7742 301.73 85.5581 306.884 101.48 290.682C117.402 274.479 112.471 243.15 108.015 229.511C103.324 217.203 93.5043 210.837 89.1807 209.193C84.6458 197.73 74.1037 196.114 70.7882 197.647C68.1358 198.873 63.2859 198.381 61.1925 197.982C53.0872 198.718 47.2364 209.051 45.3242 214.126C38.8757 215.201 28.0138 224.084 23.6288 232.458C19.2439 240.831 26.4068 259.572 32.6468 265.59Z" fill="url(#paint24_linear_2022_873)"/>
<path d="M107.685 217.334C88.7772 196.678 67.0964 199.193 62.1414 205.602C59.9785 207.567 52.6797 215.343 40.7877 230.725C25.9227 249.952 63.1643 315.83 92.7193 296.373C122.274 276.917 131.319 243.153 107.685 217.334Z" fill="#E57881"/>
<path fill-rule="evenodd" clip-rule="evenodd" d="M44.7666 214.236C50.6805 213.696 58.4285 214.433 67.0298 218.47C69.5375 219.611 76.5991 222.104 84.7841 222.952C91.8415 226.485 104.901 240.674 100.68 269.167C99.588 277.039 93.9206 294.351 79.9669 301.386C87.2544 300.452 94.8721 297.406 101.48 290.682C117.402 274.479 112.471 243.15 108.015 229.511C103.324 217.203 93.5044 210.837 89.1808 209.193C84.6459 197.73 74.1038 196.114 70.7883 197.647C68.1359 198.873 63.286 198.381 61.1926 197.982C53.0872 198.718 47.2365 209.051 45.3243 214.126C45.1418 214.156 44.9558 214.193 44.7666 214.236Z" fill="#ECABA3"/>
<path d="M70.6749 229.114C68.531 231.456 60.0486 238.933 56.0754 242.379C59.1799 242.271 65.9416 247.42 66.5488 248.249C67.1559 249.078 78.6067 263.135 78.6636 264.267L76.7415 226.067C75.6126 226.107 72.8188 226.771 70.6749 229.114Z" fill="url(#paint25_linear_2022_873)"/>
<ellipse cx="13.5991" cy="12.4255" rx="13.5991" ry="12.4255" transform="matrix(-0.0502544 -0.998737 0.999391 -0.0348991 43.2622 274.29)" fill="url(#paint26_linear_2022_873)"/>
<path d="M55.6727 260.753C53.7814 258.282 54.1699 254.932 56.3822 253.246C58.5946 251.561 61.9355 252.07 63.8268 254.541C65.718 257.013 65.3301 260.362 63.118 262.047C60.9057 263.733 57.5641 263.224 55.6727 260.753Z" fill="#EA8994" stroke="url(#paint27_linear_2022_873)" stroke-width="2"/>
<path d="M60.8154 269.142C57.4193 273.569 51.5739 272.772 49.0758 271.82C50.1818 273.198 53.74 275.739 59.1245 274.87C64.5091 274.002 72.2728 266.474 72.7375 264.474C73.2023 262.474 70.7025 257.742 66.1986 252.514C59.74 245.016 50.9416 247.094 50.9416 247.094C47.2869 247.505 43.8457 252.161 43.6489 253.868C43.4915 255.234 44.1857 255.172 44.5525 254.97C44.7066 252.414 48.8546 250.568 51.0839 249.924C53.3133 249.279 58.5073 251.365 60.8932 253.833C63.2792 256.301 65.0605 263.608 60.8154 269.142Z" fill="url(#paint28_linear_2022_873)"/>
<path d="M64.9299 289.123C64.5809 291.176 67.3728 292.723 69.6306 292.644C71.8884 292.565 78.0974 292.349 85.8976 284.423C94.8314 275.345 93.7686 266.668 91.8996 263.238C89.9318 259.716 85.8094 251.205 85.0616 245.335C84.3139 239.466 78.0191 232.731 74.9651 230.098C74.4805 229.831 73.2689 230.1 72.2994 233.309C71.33 236.518 75.3174 250.211 77.4324 256.656C68.3391 244.502 65.4741 243.752 60.3086 242.231C56.1762 241.015 49.4299 245.162 47.8505 247.485C50.0228 245.709 54.1915 245.651 58.2501 246.272C67.6204 247.705 72.2409 260.239 75.2483 263.819C78.2556 267.399 81.5879 271.818 79.9967 279.527C78.7238 285.694 73.297 286.847 70.7428 286.653C68.9506 286.621 65.2789 287.07 64.9299 289.123Z" fill="#F2B9AE"/>
<path d="M34.3286 229.249C25.017 235.231 28.6255 256.376 42.6707 265.807C36.6316 235.688 62.6768 225.141 69.3816 229.159C74.7455 232.373 87.9304 232.574 93.8524 232.273C92.0033 231.109 88.2908 228.498 88.2339 227.367C76.9825 217.272 46.9266 221.156 34.3286 229.249Z" fill="#F2B9AE"/>
<path d="M69.927 292.917C74.5557 293.133 84.7266 291.493 88.3806 283.202C92.9481 272.838 92.8225 275.961 93.4958 266.867" stroke="url(#paint29_linear_2022_873)"/>
<path d="M79.6628 289.743C88.2268 285.759 95.5428 268.212 89.9619 252.817C84.381 237.422 82.6876 237.481 76.7726 232.302" stroke="url(#paint30_linear_2022_873)"/>
<path d="M63.2954 262.252C62.9252 254.895 60.2428 252.154 56.4884 250.585C52.7341 249.015 43.6174 247.633 42.4935 259.01" stroke="url(#paint31_linear_2022_873)"/>
<path d="M63.2954 262.252C62.9252 254.895 60.2428 252.154 56.4884 250.585C52.7341 249.015 43.6174 247.633 42.4935 259.01" stroke="url(#paint32_linear_2022_873)"/>
<path d="M63.2954 262.252C62.9252 254.895 60.2428 252.154 56.4884 250.585C52.7341 249.015 43.6174 247.633 42.4935 259.01" stroke="url(#paint33_linear_2022_873)"/>
<path d="M58.6431 270.919C66.7112 262.7 64.5579 254.555 57.6749 251.677C50.7919 248.8 44.1565 252.716 43.0326 264.094" stroke="url(#paint34_linear_2022_873)"/>
<path d="M41.636 264.426C40.168 263.344 26.1345 248.527 29.7699 236.495C33.4053 224.463 51.5507 219.861 67.455 221.29" stroke="url(#paint35_linear_2022_873)"/>
<path d="M34.3779 255.042C22.9648 230.496 50.5504 223.573 62.9388 221.447C73.31 219.668 76.0376 228.927 94.3279 232.823" stroke="white"/>
<path d="M45.2961 213.56C50.0803 203.756 64.3071 187.952 82.9411 203.175C106.234 222.203 110.951 231.676 111.774 242.419" stroke="url(#paint36_linear_2022_873)"/>
<path d="M83.3228 300.67C87.2027 299.117 105.562 298.759 111.986 274.725C117.125 255.497 109.954 232.467 105.726 223.355" stroke="url(#paint37_linear_2022_873)"/>
<path d="M53.5639 243.034C56.1592 240.298 64.3036 238.464 76.1186 253.017M48.1045 246.909C52.0246 240.536 70.9882 235.339 80.9241 269.857" stroke="url(#paint38_linear_2022_873)"/>
<defs>
<linearGradient id="paint0_linear_2022_873" x1="35.1793" y1="48.772" x2="99.4981" y2="62.4257" gradientUnits="userSpaceOnUse">
<stop stop-color="#ACA97D"/>
<stop offset="1" stop-color="#7D7A5F"/>
</linearGradient>
<linearGradient id="paint1_linear_2022_873" x1="119.151" y1="81.388" x2="156.325" y2="135.623" gradientUnits="userSpaceOnUse">
<stop stop-color="#ACA97D"/>
<stop offset="1" stop-color="#7D7A5F"/>
</linearGradient>
<linearGradient id="paint2_linear_2022_873" x1="105.083" y1="260.668" x2="163.676" y2="350.498" gradientUnits="userSpaceOnUse">
<stop stop-color="#828B3A"/>
<stop offset="1" stop-color="#B5C37F"/>
</linearGradient>
<linearGradient id="paint3_linear_2022_873" x1="69.9679" y1="131.14" x2="90.157" y2="132.156" gradientUnits="userSpaceOnUse">
<stop stop-color="white" stop-opacity="0"/>
<stop offset="1" stop-color="white"/>
</linearGradient>
<linearGradient id="paint4_linear_2022_873" x1="25.4444" y1="155.626" x2="63.5258" y2="157.542" gradientUnits="userSpaceOnUse">
<stop stop-color="white" stop-opacity="0"/>
<stop offset="1" stop-color="white"/>
</linearGradient>
<linearGradient id="paint5_linear_2022_873" x1="25.4444" y1="155.626" x2="63.5258" y2="157.542" gradientUnits="userSpaceOnUse">
<stop stop-color="white" stop-opacity="0"/>
<stop offset="1" stop-color="white"/>
</linearGradient>
<linearGradient id="paint6_linear_2022_873" x1="35.1053" y1="112.664" x2="91.9461" y2="204.346" gradientUnits="userSpaceOnUse">
<stop stop-color="#ED929A"/>
<stop offset="1" stop-color="#DA616C"/>
</linearGradient>
<linearGradient id="paint7_linear_2022_873" x1="50.016" y1="175.384" x2="72.9617" y2="162.388" gradientUnits="userSpaceOnUse">
<stop stop-color="#D9D9D9" stop-opacity="0.37"/>
<stop offset="0.154167" stop-color="#DEA5AB" stop-opacity="0.713219"/>
<stop offset="1" stop-color="#E27A84"/>
</linearGradient>
<linearGradient id="paint8_linear_2022_873" x1="16.3962" y1="0" x2="16.3962" y2="29.9625" gradientUnits="userSpaceOnUse">
<stop stop-color="#F48C94"/>
<stop offset="0.945833" stop-color="#B56C75"/>
</linearGradient>
<linearGradient id="paint9_linear_2022_873" x1="41.8093" y1="144.751" x2="48.4582" y2="148.254" gradientUnits="userSpaceOnUse">
<stop stop-color="#F5B7BE"/>
<stop offset="1" stop-color="#EE9CA5" stop-opacity="0"/>
</linearGradient>
<linearGradient id="paint10_linear_2022_873" x1="32.794" y1="145.05" x2="80.0557" y2="147.428" gradientUnits="userSpaceOnUse">
<stop stop-color="#F1B7AD"/>
<stop offset="1" stop-color="#F2B9AE"/>
</linearGradient>
<linearGradient id="paint11_linear_2022_873" x1="60.0422" y1="104.827" x2="60.1818" y2="137.906" gradientUnits="userSpaceOnUse">
<stop offset="0.0104167" stop-color="white" stop-opacity="0"/>
<stop offset="0.239583" stop-color="white"/>
<stop offset="0.817708" stop-color="white"/>
<stop offset="1" stop-color="white" stop-opacity="0"/>
</linearGradient>
<linearGradient id="paint12_linear_2022_873" x1="71.8923" y1="106.43" x2="81.2599" y2="180.049" gradientUnits="userSpaceOnUse">
<stop offset="0.0104167" stop-color="white" stop-opacity="0"/>
<stop offset="0.239583" stop-color="white"/>
<stop offset="0.817708" stop-color="white"/>
<stop offset="1" stop-color="white" stop-opacity="0"/>
</linearGradient>
<linearGradient id="paint13_linear_2022_873" x1="27.2499" y1="140.072" x2="59.5957" y2="141.02" gradientUnits="userSpaceOnUse">
<stop offset="0.0104167" stop-color="white" stop-opacity="0"/>
<stop offset="0.239583" stop-color="white"/>
<stop offset="0.817708" stop-color="white"/>
<stop offset="1" stop-color="white" stop-opacity="0"/>
</linearGradient>
<linearGradient id="paint14_linear_2022_873" x1="27.2499" y1="140.072" x2="59.5957" y2="141.02" gradientUnits="userSpaceOnUse">
<stop offset="0.0104167" stop-color="white" stop-opacity="0"/>
<stop offset="0.239583" stop-color="white"/>
<stop offset="0.817708" stop-color="white"/>
<stop offset="1" stop-color="white" stop-opacity="0"/>
</linearGradient>
<linearGradient id="paint15_linear_2022_873" x1="27.2499" y1="140.072" x2="59.5957" y2="141.02" gradientUnits="userSpaceOnUse">
<stop offset="0.0104167" stop-color="white" stop-opacity="0"/>
<stop offset="0.239583" stop-color="white"/>
<stop offset="0.817708" stop-color="white"/>
<stop offset="1" stop-color="white" stop-opacity="0"/>
</linearGradient>
<linearGradient id="paint16_linear_2022_873" x1="45.0161" y1="132.49" x2="62.7561" y2="154.88" gradientUnits="userSpaceOnUse">
<stop offset="0.0104167" stop-color="white" stop-opacity="0"/>
<stop offset="0.279167" stop-color="white"/>
<stop offset="0.817708" stop-color="white"/>
<stop offset="1" stop-color="white" stop-opacity="0"/>
</linearGradient>
<linearGradient id="paint17_linear_2022_873" x1="21.091" y1="140.54" x2="56.866" y2="166.5" gradientUnits="userSpaceOnUse">
<stop offset="0.0187499" stop-color="white" stop-opacity="0.07"/>
<stop offset="0.560417" stop-color="white"/>
<stop offset="1" stop-color="white" stop-opacity="0"/>
</linearGradient>
<linearGradient id="paint18_linear_2022_873" x1="46.7702" y1="164.983" x2="89.1693" y2="210.602" gradientUnits="userSpaceOnUse">
<stop offset="0.0187499" stop-color="white" stop-opacity="0.07"/>
<stop offset="0.560417" stop-color="white"/>
<stop offset="1" stop-color="white" stop-opacity="0"/>
</linearGradient>
<linearGradient id="paint19_linear_2022_873" x1="83.4517" y1="96.9941" x2="123.075" y2="111.223" gradientUnits="userSpaceOnUse">
<stop offset="0.0187499" stop-color="white" stop-opacity="0.07"/>
<stop offset="0.560417" stop-color="white"/>
<stop offset="1" stop-color="white" stop-opacity="0"/>
</linearGradient>
<linearGradient id="paint20_linear_2022_873" x1="40.5392" y1="148.945" x2="55.414" y2="167.986" gradientUnits="userSpaceOnUse">
<stop offset="0.0187499" stop-color="white" stop-opacity="0.07"/>
<stop offset="0.560417" stop-color="white"/>
<stop offset="1" stop-color="white" stop-opacity="0"/>
</linearGradient>
<linearGradient id="paint21_linear_2022_873" x1="78.2376" y1="272.644" x2="94.9826" y2="271.801" gradientUnits="userSpaceOnUse">
<stop stop-color="white" stop-opacity="0"/>
<stop offset="1" stop-color="white"/>
</linearGradient>
<linearGradient id="paint22_linear_2022_873" x1="41.3097" y1="252.335" x2="72.8947" y2="250.746" gradientUnits="userSpaceOnUse">
<stop stop-color="white" stop-opacity="0"/>
<stop offset="1" stop-color="white"/>
</linearGradient>
<linearGradient id="paint23_linear_2022_873" x1="41.3097" y1="252.335" x2="72.8947" y2="250.746" gradientUnits="userSpaceOnUse">
<stop stop-color="white" stop-opacity="0"/>
<stop offset="1" stop-color="white"/>
</linearGradient>
<linearGradient id="paint24_linear_2022_873" x1="49.3225" y1="287.968" x2="96.4667" y2="211.926" gradientUnits="userSpaceOnUse">
<stop stop-color="#ED929A"/>
<stop offset="1" stop-color="#DA616C"/>
</linearGradient>
<linearGradient id="paint25_linear_2022_873" x1="61.6889" y1="235.947" x2="80.7203" y2="246.726" gradientUnits="userSpaceOnUse">
<stop stop-color="#D9D9D9" stop-opacity="0.37"/>
<stop offset="0.154167" stop-color="#DEA5AB" stop-opacity="0.713219"/>
<stop offset="1" stop-color="#E27A84"/>
</linearGradient>
<linearGradient id="paint26_linear_2022_873" x1="13.5991" y1="0" x2="13.5991" y2="24.8511" gradientUnits="userSpaceOnUse">
<stop stop-color="#F48C94"/>
<stop offset="0.945833" stop-color="#B56C75"/>
</linearGradient>
<linearGradient id="paint27_linear_2022_873" x1="54.883" y1="261.354" x2="60.3977" y2="258.449" gradientUnits="userSpaceOnUse">
<stop stop-color="#F5B7BE"/>
<stop offset="1" stop-color="#EE9CA5" stop-opacity="0"/>
</linearGradient>
<linearGradient id="paint28_linear_2022_873" x1="47.4058" y1="261.107" x2="86.605" y2="259.134" gradientUnits="userSpaceOnUse">
<stop stop-color="#F1B7AD"/>
<stop offset="1" stop-color="#F2B9AE"/>
</linearGradient>
<linearGradient id="paint29_linear_2022_873" x1="70.005" y1="294.467" x2="70.1208" y2="267.032" gradientUnits="userSpaceOnUse">
<stop offset="0.0104167" stop-color="white" stop-opacity="0"/>
<stop offset="0.239583" stop-color="white"/>
<stop offset="0.817708" stop-color="white"/>
<stop offset="1" stop-color="white" stop-opacity="0"/>
</linearGradient>
<linearGradient id="paint30_linear_2022_873" x1="79.8337" y1="293.138" x2="87.6033" y2="232.079" gradientUnits="userSpaceOnUse">
<stop offset="0.0104167" stop-color="white" stop-opacity="0"/>
<stop offset="0.239583" stop-color="white"/>
<stop offset="0.817708" stop-color="white"/>
<stop offset="1" stop-color="white" stop-opacity="0"/>
</linearGradient>
<linearGradient id="paint31_linear_2022_873" x1="42.8068" y1="265.235" x2="69.6346" y2="264.449" gradientUnits="userSpaceOnUse">
<stop offset="0.0104167" stop-color="white" stop-opacity="0"/>
<stop offset="0.239583" stop-color="white"/>
<stop offset="0.817708" stop-color="white"/>
<stop offset="1" stop-color="white" stop-opacity="0"/>
</linearGradient>
<linearGradient id="paint32_linear_2022_873" x1="42.8068" y1="265.235" x2="69.6346" y2="264.449" gradientUnits="userSpaceOnUse">
<stop offset="0.0104167" stop-color="white" stop-opacity="0"/>
<stop offset="0.239583" stop-color="white"/>
<stop offset="0.817708" stop-color="white"/>
<stop offset="1" stop-color="white" stop-opacity="0"/>
</linearGradient>
<linearGradient id="paint33_linear_2022_873" x1="42.8068" y1="265.235" x2="69.6346" y2="264.449" gradientUnits="userSpaceOnUse">
<stop offset="0.0104167" stop-color="white" stop-opacity="0"/>
<stop offset="0.239583" stop-color="white"/>
<stop offset="0.817708" stop-color="white"/>
<stop offset="1" stop-color="white" stop-opacity="0"/>
</linearGradient>
<linearGradient id="paint34_linear_2022_873" x1="57.5426" y1="271.524" x2="72.2563" y2="252.954" gradientUnits="userSpaceOnUse">
<stop offset="0.0104167" stop-color="white" stop-opacity="0"/>
<stop offset="0.279167" stop-color="white"/>
<stop offset="0.817708" stop-color="white"/>
<stop offset="1" stop-color="white" stop-opacity="0"/>
</linearGradient>
<linearGradient id="paint35_linear_2022_873" x1="37.6991" y1="264.847" x2="67.3712" y2="243.316" gradientUnits="userSpaceOnUse">
<stop offset="0.0187499" stop-color="white" stop-opacity="0.07"/>
<stop offset="0.560417" stop-color="white"/>
<stop offset="1" stop-color="white" stop-opacity="0"/>
</linearGradient>
<linearGradient id="paint36_linear_2022_873" x1="58.9976" y1="244.574" x2="94.1637" y2="206.737" gradientUnits="userSpaceOnUse">
<stop offset="0.0187499" stop-color="white" stop-opacity="0.07"/>
<stop offset="0.560417" stop-color="white"/>
<stop offset="1" stop-color="white" stop-opacity="0"/>
</linearGradient>
<linearGradient id="paint37_linear_2022_873" x1="89.4209" y1="300.965" x2="122.285" y2="289.163" gradientUnits="userSpaceOnUse">
<stop offset="0.0187499" stop-color="white" stop-opacity="0.07"/>
<stop offset="0.560417" stop-color="white"/>
<stop offset="1" stop-color="white" stop-opacity="0"/>
</linearGradient>
<linearGradient id="paint38_linear_2022_873" x1="53.8294" y1="257.876" x2="66.1666" y2="242.084" gradientUnits="userSpaceOnUse">
<stop offset="0.0187499" stop-color="white" stop-opacity="0.07"/>
<stop offset="0.560417" stop-color="white"/>
<stop offset="1" stop-color="white" stop-opacity="0"/>
</linearGradient>
</defs>
</svg>
