<svg width="203" height="359" viewBox="0 0 203 359" fill="none" xmlns="http://www.w3.org/2000/svg">
<path d="M170.084 296.802C175.592 267.282 152.131 254.97 139.712 252.504C128.143 254.952 105.001 266.121 104.978 291.213C104.955 316.304 136.011 345.78 151.542 357.381C151.579 348.282 163.197 333.702 170.084 296.802Z" fill="url(#paint0_linear_2022_804)"/>
<path d="M143.345 297.85C147.578 303.191 156.381 314.96 157.73 319.313" stroke="white"/>
<path d="M139.508 253.469C143.997 285.853 141.341 320.672 150.35 354.076" stroke="white"/>
<path d="M140.952 268.976C147.732 274.216 161.907 286.254 164.374 292.478" stroke="white"/>
<path d="M140.375 262.773C138.363 263.331 124.48 266.269 116.151 287.664" stroke="white"/>
<path d="M141.575 288.343C138.317 290.306 129.258 301.754 126.593 314.307" stroke="white"/>
<path d="M94.3642 269.641C118.707 252.057 110.202 226.964 102.907 216.615C92.8395 210.412 68.3758 202.547 51.0599 220.705C33.744 238.864 35.9164 281.626 39.1671 300.737C45.4677 294.172 63.9358 291.621 94.3642 269.641Z" fill="url(#paint1_linear_2022_804)"/>
<path d="M74.2752 251.966C73.659 258.753 71.9207 273.347 69.897 277.43" stroke="white"/>
<path d="M102.094 217.173C83.019 243.726 57.0891 267.115 40.5837 297.521" stroke="white"/>
<path d="M92.4492 229.401C93.7464 237.871 95.7147 256.364 93.2105 262.573" stroke="white"/>
<path d="M96.3071 224.511C94.465 223.527 82.3842 216.084 61.6001 225.838" stroke="white"/>
<path d="M79.5479 243.859C75.8346 243.035 61.3801 245.081 50.7945 252.336" stroke="white"/>
<path d="M94.8201 40.0515C118.702 59.6791 107.365 85.777 98.7107 96.3724C87.5425 102.471 61.0944 109.687 44.6476 89.7642C28.2009 69.8412 34.5806 24.8232 39.8263 4.8046C45.8147 12.0092 64.9674 15.5169 94.8201 40.0515Z" fill="url(#paint2_linear_2022_804)"/>
<path d="M72.026 57.8121C72.0292 50.6248 71.6021 35.1511 69.8679 30.7545" stroke="white"/>
<path d="M97.9093 95.7475C80.4191 66.8911 55.4263 41.069 41.0045 8.26008" stroke="white"/>
<path d="M88.9518 82.422C91.126 73.5432 94.9655 54.1204 92.9304 47.4592" stroke="white"/>
<path d="M92.5344 87.7522C90.5053 88.7084 77.1035 96.0266 56.2087 84.8172" stroke="white"/>
<path d="M76.7859 66.5984C72.8069 67.3037 57.8213 64.5061 47.3986 56.3831" stroke="white"/>
<path d="M131.148 256.309C124.045 250.706 110.393 236.582 112.617 224.904C115.397 210.305 122.408 206.449 123.161 198.273" stroke="url(#paint3_linear_2022_804)" stroke-width="2"/>
<path d="M176.355 218.243C176.161 208.553 172.996 188.803 161.89 187.322C148.007 185.47 140.721 194.785 139.12 199.513" stroke="url(#paint4_linear_2022_804)" stroke-width="2"/>
<path d="M176.355 218.243C176.161 208.553 172.996 188.803 161.89 187.322C148.007 185.47 140.721 194.785 139.12 199.513" stroke="url(#paint5_linear_2022_804)" stroke-width="2"/>
<path d="M187.567 218.977C181.548 224.782 179.233 237.824 178.828 243.62C177.094 256.409 166.067 257.87 160.77 257.001C150.038 262.55 123.773 268.764 104.576 249.229C85.3796 229.694 91.3253 191.921 96.6977 175.477C102.353 160.637 114.193 152.962 119.405 150.98C124.873 137.159 137.583 135.21 141.581 137.059C144.779 138.537 150.626 137.944 153.15 137.463C162.923 138.351 169.977 150.809 172.282 156.927C180.057 158.224 193.153 168.934 198.44 179.029C203.727 189.125 195.091 211.721 187.567 218.977Z" fill="url(#paint6_linear_2022_804)"/>
<path d="M97.0952 160.795C119.892 135.891 146.032 138.923 152.006 146.65C154.614 149.019 163.414 158.395 177.751 176.94C195.674 200.122 150.772 279.55 115.139 256.091C79.5047 232.633 68.5999 191.925 97.0952 160.795Z" fill="#E57881"/>
<path fill-rule="evenodd" clip-rule="evenodd" d="M172.955 157.06C165.824 156.409 156.483 157.298 146.112 162.165C143.089 163.54 134.575 166.547 124.706 167.569C116.197 171.829 100.452 188.936 105.541 223.289C106.857 232.781 113.691 253.653 130.514 262.135C121.728 261.009 112.543 257.337 104.576 249.229C85.3795 229.694 91.3252 191.921 96.6976 175.477C102.353 160.637 114.192 152.962 119.405 150.98C124.873 137.159 137.583 135.21 141.581 137.059C144.779 138.537 150.626 137.944 153.15 137.463C162.923 138.351 169.977 150.809 172.282 156.927C172.502 156.964 172.726 157.008 172.955 157.06Z" fill="#ECABA3"/>
<path d="M141.717 174.998C144.302 177.822 154.529 186.837 159.319 190.992C155.576 190.861 147.424 197.07 146.691 198.069C145.959 199.069 132.153 216.016 132.085 217.381L134.402 171.325C135.763 171.372 139.132 172.174 141.717 174.998Z" fill="url(#paint7_linear_2022_804)"/>
<ellipse cx="16.3962" cy="14.9812" rx="16.3962" ry="14.9812" transform="matrix(0.0502544 -0.998737 -0.999391 -0.0348991 174.768 229.466)" fill="url(#paint8_linear_2022_804)"/>
<path d="M159.968 213.269C162.311 210.206 161.841 206.036 159.076 203.929C156.311 201.823 152.155 202.47 149.812 205.532C147.468 208.594 147.938 212.763 150.703 214.87C153.468 216.976 157.624 216.33 159.968 213.269Z" fill="#EA8994" stroke="url(#paint9_linear_2022_804)" stroke-width="2"/>
<path d="M153.605 223.259C157.7 228.597 164.747 227.636 167.759 226.488C166.426 228.15 162.136 231.213 155.644 230.166C149.152 229.119 139.791 220.043 139.231 217.631C138.671 215.219 141.685 209.515 147.115 203.211C154.902 194.171 165.51 196.676 165.51 196.676C169.916 197.172 174.065 202.785 174.303 204.844C174.492 206.491 173.655 206.416 173.213 206.173C173.027 203.091 168.026 200.865 165.338 200.088C162.65 199.311 156.388 201.826 153.511 204.801C150.635 207.777 148.487 216.587 153.605 223.259Z" fill="url(#paint10_linear_2022_804)"/>
<path d="M148.643 247.35C149.064 249.826 145.698 251.69 142.976 251.595C140.254 251.5 132.768 251.239 123.363 241.683C112.592 230.738 113.873 220.277 116.127 216.14C118.499 211.894 123.469 201.633 124.371 194.556C125.272 187.479 132.862 179.36 136.544 176.185C137.128 175.863 138.589 176.188 139.758 180.056C140.927 183.925 136.119 200.434 133.569 208.206C144.427 193.693 147.92 192.665 154.036 190.866L154.215 190.814C159.198 189.347 167.331 194.347 169.236 197.148C166.617 195.006 161.59 194.936 156.697 195.685C145.4 197.413 139.829 212.525 136.203 216.842C132.577 221.158 128.559 226.486 130.478 235.78C132.012 243.215 138.555 244.606 141.635 244.372C143.796 244.333 148.223 244.875 148.643 247.35Z" fill="#F2B9AE"/>
<path d="M185.539 175.161C196.766 182.373 192.415 207.868 175.481 219.238C182.762 182.924 151.36 170.208 143.276 175.052C136.809 178.927 120.912 179.17 113.772 178.806C116.002 177.403 120.478 174.256 120.547 172.891C134.112 160.72 170.35 165.403 185.539 175.161Z" fill="#F2B9AE"/>
<path d="M142.619 251.924C137.038 252.185 124.775 250.208 120.37 240.211C114.863 227.716 115.014 231.48 114.202 220.516" stroke="url(#paint11_linear_2022_804)"/>
<path d="M130.881 248.097C120.555 243.293 111.734 222.138 118.463 203.577C125.192 185.015 127.234 185.087 134.365 178.842" stroke="url(#paint12_linear_2022_804)"/>
<path d="M150.614 214.952C151.061 206.082 154.295 202.778 158.821 200.885C163.348 198.993 174.34 197.326 175.695 211.044" stroke="url(#paint13_linear_2022_804)"/>
<path d="M150.614 214.952C151.061 206.082 154.295 202.778 158.821 200.885C163.348 198.993 174.34 197.326 175.695 211.044" stroke="url(#paint14_linear_2022_804)"/>
<path d="M150.614 214.952C151.061 206.082 154.295 202.778 158.821 200.885C163.348 198.993 174.34 197.326 175.695 211.044" stroke="url(#paint15_linear_2022_804)"/>
<path d="M156.224 225.401C146.496 215.492 149.093 205.672 157.391 202.203C165.69 198.733 173.69 203.455 175.045 217.173" stroke="url(#paint16_linear_2022_804)"/>
<path d="M176.729 217.574C178.499 216.268 195.419 198.404 191.036 183.898C186.653 169.391 164.775 163.842 145.6 165.565" stroke="url(#paint17_linear_2022_804)"/>
<path d="M185.48 206.259C199.241 176.665 165.982 168.317 151.045 165.755C138.541 163.609 135.252 174.772 113.2 179.47" stroke="white"/>
<path d="M172.316 156.245C166.548 144.424 149.395 125.37 126.928 143.724C98.8451 166.666 93.1573 178.087 92.1647 191.039" stroke="url(#paint18_linear_2022_804)"/>
<path d="M126.468 261.271C121.79 259.399 99.6545 258.968 91.909 229.99C85.7126 206.808 94.3591 179.04 99.4568 168.054" stroke="url(#paint19_linear_2022_804)"/>
<path d="M162.348 191.781C159.219 188.482 149.399 186.271 135.154 203.818M168.93 196.454C164.204 188.77 141.34 182.503 129.36 224.121" stroke="url(#paint20_linear_2022_804)"/>
<path d="M123.126 62.0675C117.234 66.714 105.912 78.4287 107.756 88.1151C110.062 100.223 115.877 103.422 116.501 110.203" stroke="url(#paint21_linear_2022_804)" stroke-width="2"/>
<path d="M160.621 93.6395C160.46 101.676 157.835 118.057 148.623 119.286C137.109 120.822 131.066 113.096 129.738 109.174" stroke="url(#paint22_linear_2022_804)" stroke-width="2"/>
<path d="M160.621 93.6395C160.46 101.676 157.835 118.057 148.623 119.286C137.109 120.822 131.066 113.096 129.738 109.174" stroke="url(#paint23_linear_2022_804)" stroke-width="2"/>
<path d="M169.92 93.0308C164.928 88.2163 163.008 77.3988 162.672 72.5918C161.233 61.9841 152.088 60.7728 147.694 61.4932C138.793 56.8908 117.009 51.7368 101.087 67.9394C85.165 84.1421 90.0964 115.471 94.5523 129.11C99.2428 141.418 109.063 147.784 113.386 149.428C117.921 160.891 128.463 162.508 131.779 160.974C134.431 159.748 139.281 160.24 141.374 160.639C149.48 159.903 155.33 149.57 157.243 144.495C163.691 143.42 174.553 134.537 178.938 126.164C183.323 117.79 176.16 99.0489 169.92 93.0308Z" fill="url(#paint24_linear_2022_804)"/>
<path d="M94.8823 141.287C113.79 161.943 135.471 159.428 140.426 153.019C142.588 151.054 149.887 143.278 161.779 127.896C176.644 108.669 139.403 42.7913 109.848 62.2479C80.2926 81.7045 71.248 115.468 94.8823 141.287Z" fill="#E57881"/>
<path fill-rule="evenodd" clip-rule="evenodd" d="M157.8 144.385C151.886 144.925 144.138 144.188 135.537 140.151C133.029 139.01 125.968 136.517 117.783 135.669C110.725 132.136 97.6659 117.947 101.887 89.4539C102.979 81.5816 108.646 64.2701 122.6 57.2354C115.313 58.1688 107.695 61.2147 101.087 67.9393C85.1649 84.142 90.0963 115.471 94.5522 129.11C99.2428 141.418 109.063 147.784 113.386 149.428C117.921 160.891 128.463 162.507 131.779 160.974C134.431 159.748 139.281 160.24 141.374 160.639C149.48 159.903 155.33 149.57 157.243 144.495C157.425 144.465 157.611 144.428 157.8 144.385Z" fill="#ECABA3"/>
<path d="M131.892 129.507C134.036 127.165 142.518 119.688 146.492 116.242C143.387 116.35 136.625 111.201 136.018 110.372C135.411 109.543 123.96 95.4863 123.903 94.3545L125.825 132.554C126.954 132.514 129.748 131.85 131.892 129.507Z" fill="url(#paint25_linear_2022_804)"/>
<ellipse cx="13.5991" cy="12.4255" rx="13.5991" ry="12.4255" transform="matrix(0.0502545 0.998737 -0.999391 0.0348992 159.305 84.3311)" fill="url(#paint26_linear_2022_804)"/>
<path d="M146.894 97.8682C148.785 100.34 148.397 103.69 146.185 105.375C143.972 107.06 140.631 106.551 138.74 104.08C136.849 101.608 137.237 98.259 139.449 96.5737C141.661 94.8884 145.003 95.3969 146.894 97.8682Z" fill="#EA8994" stroke="url(#paint27_linear_2022_804)" stroke-width="2"/>
<path d="M141.752 89.4789C145.148 85.0518 150.993 85.8492 153.491 86.8013C152.385 85.4226 148.827 82.8824 143.442 83.7507C138.058 84.6191 130.294 92.1466 129.829 94.147C129.365 96.1474 131.864 100.879 136.368 106.107C142.827 113.605 151.625 111.527 151.625 111.527C155.28 111.116 158.721 106.46 158.918 104.753C159.075 103.387 158.381 103.449 158.014 103.651C157.86 106.207 153.712 108.053 151.483 108.697C149.254 109.342 144.06 107.256 141.674 104.788C139.288 102.32 137.506 95.0127 141.752 89.4789Z" fill="url(#paint28_linear_2022_804)"/>
<path d="M137.637 69.4976C137.986 67.4446 135.194 65.898 132.936 65.9769C130.678 66.0557 124.469 66.2725 116.669 74.1982C107.736 83.2757 108.798 91.9527 110.667 95.3834C112.635 98.9051 116.758 107.416 117.505 113.286C118.253 119.155 124.548 125.89 127.602 128.523C128.086 128.79 129.298 128.521 130.267 125.312C131.237 122.103 127.249 108.41 125.135 101.965C134.228 114.119 137.093 114.869 142.258 116.39C146.391 117.606 153.137 113.459 154.716 111.136C152.544 112.912 148.375 112.97 144.317 112.349C134.947 110.916 130.326 98.3818 127.319 94.8019C124.311 91.222 120.979 86.8031 122.57 79.0943C123.843 72.9272 129.27 71.774 131.824 71.9682C133.616 72.0001 137.288 71.5507 137.637 69.4976Z" fill="#F2B9AE"/>
<path d="M168.238 129.372C177.55 123.39 173.941 102.245 159.896 92.8143C165.935 122.933 139.89 133.48 133.185 129.462C127.821 126.248 114.636 126.047 108.714 126.348C110.564 127.512 114.276 130.123 114.333 131.254C125.584 141.349 155.64 137.465 168.238 129.372Z" fill="#F2B9AE"/>
<path d="M132.64 65.7039C128.011 65.4876 117.84 67.1277 114.186 75.4188C109.619 85.7827 109.744 82.6603 109.071 91.7543" stroke="url(#paint29_linear_2022_804)"/>
<path d="M122.904 68.8785C114.34 72.8624 107.024 90.4086 112.605 105.804C118.186 121.199 119.879 121.14 125.794 126.319" stroke="url(#paint30_linear_2022_804)"/>
<path d="M139.271 96.3688C139.642 103.726 142.324 106.467 146.078 108.036C149.833 109.606 158.95 110.988 160.073 99.6108" stroke="url(#paint31_linear_2022_804)"/>
<path d="M139.271 96.3688C139.642 103.726 142.324 106.467 146.078 108.036C149.833 109.606 158.95 110.988 160.073 99.6108" stroke="url(#paint32_linear_2022_804)"/>
<path d="M139.271 96.3688C139.642 103.726 142.324 106.467 146.078 108.036C149.833 109.606 158.95 110.988 160.073 99.6108" stroke="url(#paint33_linear_2022_804)"/>
<path d="M143.924 87.7025C135.856 95.9209 138.009 104.066 144.892 106.944C151.775 109.821 158.41 105.905 159.534 94.5272" stroke="url(#paint34_linear_2022_804)"/>
<path d="M160.931 94.1947C162.399 95.2773 176.432 110.094 172.797 122.126C169.162 134.158 151.016 138.76 135.112 137.331" stroke="url(#paint35_linear_2022_804)"/>
<path d="M168.189 103.579C179.602 128.125 152.017 135.048 139.628 137.174C129.257 138.953 126.529 129.694 108.239 125.798" stroke="white"/>
<path d="M157.271 145.061C152.487 154.865 138.26 170.669 119.626 155.446C96.3332 136.418 91.6157 126.945 90.7925 116.202" stroke="url(#paint36_linear_2022_804)"/>
<path d="M119.244 57.9513C115.364 59.5041 97.0052 59.8618 90.5811 83.8962C85.4417 103.124 92.6132 126.154 96.8413 135.266" stroke="url(#paint37_linear_2022_804)"/>
<path d="M149.003 115.587C146.408 118.324 138.263 120.157 126.448 105.604M154.462 111.712C150.542 118.085 131.579 123.282 121.643 88.7642" stroke="url(#paint38_linear_2022_804)"/>
<defs>
<linearGradient id="paint0_linear_2022_804" x1="167.388" y1="309.849" x2="103.069" y2="296.195" gradientUnits="userSpaceOnUse">
<stop stop-color="#ACA97D"/>
<stop offset="1" stop-color="#7D7A5F"/>
</linearGradient>
<linearGradient id="paint1_linear_2022_804" x1="83.4161" y1="277.233" x2="46.2418" y2="222.998" gradientUnits="userSpaceOnUse">
<stop stop-color="#ACA97D"/>
<stop offset="1" stop-color="#7D7A5F"/>
</linearGradient>
<linearGradient id="paint2_linear_2022_804" x1="97.4833" y1="97.9535" x2="38.8909" y2="8.1235" gradientUnits="userSpaceOnUse">
<stop stop-color="#828B3A"/>
<stop offset="1" stop-color="#B5C37F"/>
</linearGradient>
<linearGradient id="paint3_linear_2022_804" x1="132.599" y1="227.481" x2="112.41" y2="226.465" gradientUnits="userSpaceOnUse">
<stop stop-color="white" stop-opacity="0"/>
<stop offset="1" stop-color="white"/>
</linearGradient>
<linearGradient id="paint4_linear_2022_804" x1="177.122" y1="202.996" x2="139.041" y2="201.079" gradientUnits="userSpaceOnUse">
<stop stop-color="white" stop-opacity="0"/>
<stop offset="1" stop-color="white"/>
</linearGradient>
<linearGradient id="paint5_linear_2022_804" x1="177.122" y1="202.996" x2="139.041" y2="201.079" gradientUnits="userSpaceOnUse">
<stop stop-color="white" stop-opacity="0"/>
<stop offset="1" stop-color="white"/>
</linearGradient>
<linearGradient id="paint6_linear_2022_804" x1="167.462" y1="245.957" x2="110.621" y2="154.275" gradientUnits="userSpaceOnUse">
<stop stop-color="#ED929A"/>
<stop offset="1" stop-color="#DA616C"/>
</linearGradient>
<linearGradient id="paint7_linear_2022_804" x1="152.551" y1="183.237" x2="129.605" y2="196.233" gradientUnits="userSpaceOnUse">
<stop stop-color="#D9D9D9" stop-opacity="0.37"/>
<stop offset="0.154167" stop-color="#DEA5AB" stop-opacity="0.713219"/>
<stop offset="1" stop-color="#E27A84"/>
</linearGradient>
<linearGradient id="paint8_linear_2022_804" x1="16.3962" y1="0" x2="16.3962" y2="29.9625" gradientUnits="userSpaceOnUse">
<stop stop-color="#F48C94"/>
<stop offset="0.945833" stop-color="#B56C75"/>
</linearGradient>
<linearGradient id="paint9_linear_2022_804" x1="160.758" y1="213.87" x2="154.109" y2="210.367" gradientUnits="userSpaceOnUse">
<stop stop-color="#F5B7BE"/>
<stop offset="1" stop-color="#EE9CA5" stop-opacity="0"/>
</linearGradient>
<linearGradient id="paint10_linear_2022_804" x1="169.773" y1="213.571" x2="122.511" y2="211.193" gradientUnits="userSpaceOnUse">
<stop stop-color="#F1B7AD"/>
<stop offset="1" stop-color="#F2B9AE"/>
</linearGradient>
<linearGradient id="paint11_linear_2022_804" x1="142.525" y1="253.794" x2="142.385" y2="220.715" gradientUnits="userSpaceOnUse">
<stop offset="0.0104167" stop-color="white" stop-opacity="0"/>
<stop offset="0.239583" stop-color="white"/>
<stop offset="0.817708" stop-color="white"/>
<stop offset="1" stop-color="white" stop-opacity="0"/>
</linearGradient>
<linearGradient id="paint12_linear_2022_804" x1="130.675" y1="252.191" x2="121.307" y2="178.573" gradientUnits="userSpaceOnUse">
<stop offset="0.0104167" stop-color="white" stop-opacity="0"/>
<stop offset="0.239583" stop-color="white"/>
<stop offset="0.817708" stop-color="white"/>
<stop offset="1" stop-color="white" stop-opacity="0"/>
</linearGradient>
<linearGradient id="paint13_linear_2022_804" x1="175.317" y1="218.549" x2="142.971" y2="217.601" gradientUnits="userSpaceOnUse">
<stop offset="0.0104167" stop-color="white" stop-opacity="0"/>
<stop offset="0.239583" stop-color="white"/>
<stop offset="0.817708" stop-color="white"/>
<stop offset="1" stop-color="white" stop-opacity="0"/>
</linearGradient>
<linearGradient id="paint14_linear_2022_804" x1="175.317" y1="218.549" x2="142.971" y2="217.601" gradientUnits="userSpaceOnUse">
<stop offset="0.0104167" stop-color="white" stop-opacity="0"/>
<stop offset="0.239583" stop-color="white"/>
<stop offset="0.817708" stop-color="white"/>
<stop offset="1" stop-color="white" stop-opacity="0"/>
</linearGradient>
<linearGradient id="paint15_linear_2022_804" x1="175.317" y1="218.549" x2="142.971" y2="217.601" gradientUnits="userSpaceOnUse">
<stop offset="0.0104167" stop-color="white" stop-opacity="0"/>
<stop offset="0.239583" stop-color="white"/>
<stop offset="0.817708" stop-color="white"/>
<stop offset="1" stop-color="white" stop-opacity="0"/>
</linearGradient>
<linearGradient id="paint16_linear_2022_804" x1="157.551" y1="226.131" x2="139.811" y2="203.741" gradientUnits="userSpaceOnUse">
<stop offset="0.0104167" stop-color="white" stop-opacity="0"/>
<stop offset="0.279167" stop-color="white"/>
<stop offset="0.817708" stop-color="white"/>
<stop offset="1" stop-color="white" stop-opacity="0"/>
</linearGradient>
<linearGradient id="paint17_linear_2022_804" x1="181.476" y1="218.081" x2="145.701" y2="192.121" gradientUnits="userSpaceOnUse">
<stop offset="0.0187499" stop-color="white" stop-opacity="0.07"/>
<stop offset="0.560417" stop-color="white"/>
<stop offset="1" stop-color="white" stop-opacity="0"/>
</linearGradient>
<linearGradient id="paint18_linear_2022_804" x1="155.797" y1="193.638" x2="113.398" y2="148.019" gradientUnits="userSpaceOnUse">
<stop offset="0.0187499" stop-color="white" stop-opacity="0.07"/>
<stop offset="0.560417" stop-color="white"/>
<stop offset="1" stop-color="white" stop-opacity="0"/>
</linearGradient>
<linearGradient id="paint19_linear_2022_804" x1="119.115" y1="261.627" x2="79.4921" y2="247.398" gradientUnits="userSpaceOnUse">
<stop offset="0.0187499" stop-color="white" stop-opacity="0.07"/>
<stop offset="0.560417" stop-color="white"/>
<stop offset="1" stop-color="white" stop-opacity="0"/>
</linearGradient>
<linearGradient id="paint20_linear_2022_804" x1="162.028" y1="209.676" x2="147.153" y2="190.635" gradientUnits="userSpaceOnUse">
<stop offset="0.0187499" stop-color="white" stop-opacity="0.07"/>
<stop offset="0.560417" stop-color="white"/>
<stop offset="1" stop-color="white" stop-opacity="0"/>
</linearGradient>
<linearGradient id="paint21_linear_2022_804" x1="124.329" y1="85.9774" x2="107.584" y2="86.82" gradientUnits="userSpaceOnUse">
<stop stop-color="white" stop-opacity="0"/>
<stop offset="1" stop-color="white"/>
</linearGradient>
<linearGradient id="paint22_linear_2022_804" x1="161.257" y1="106.286" x2="129.672" y2="107.875" gradientUnits="userSpaceOnUse">
<stop stop-color="white" stop-opacity="0"/>
<stop offset="1" stop-color="white"/>
</linearGradient>
<linearGradient id="paint23_linear_2022_804" x1="161.257" y1="106.286" x2="129.672" y2="107.875" gradientUnits="userSpaceOnUse">
<stop stop-color="white" stop-opacity="0"/>
<stop offset="1" stop-color="white"/>
</linearGradient>
<linearGradient id="paint24_linear_2022_804" x1="153.244" y1="70.6534" x2="106.1" y2="146.695" gradientUnits="userSpaceOnUse">
<stop stop-color="#ED929A"/>
<stop offset="1" stop-color="#DA616C"/>
</linearGradient>
<linearGradient id="paint25_linear_2022_804" x1="140.878" y1="122.674" x2="121.847" y2="111.895" gradientUnits="userSpaceOnUse">
<stop stop-color="#D9D9D9" stop-opacity="0.37"/>
<stop offset="0.154167" stop-color="#DEA5AB" stop-opacity="0.713219"/>
<stop offset="1" stop-color="#E27A84"/>
</linearGradient>
<linearGradient id="paint26_linear_2022_804" x1="13.5991" y1="0" x2="13.5991" y2="24.8511" gradientUnits="userSpaceOnUse">
<stop stop-color="#F48C94"/>
<stop offset="0.945833" stop-color="#B56C75"/>
</linearGradient>
<linearGradient id="paint27_linear_2022_804" x1="147.684" y1="97.2666" x2="142.169" y2="100.172" gradientUnits="userSpaceOnUse">
<stop stop-color="#F5B7BE"/>
<stop offset="1" stop-color="#EE9CA5" stop-opacity="0"/>
</linearGradient>
<linearGradient id="paint28_linear_2022_804" x1="155.161" y1="97.5142" x2="115.962" y2="99.4866" gradientUnits="userSpaceOnUse">
<stop stop-color="#F1B7AD"/>
<stop offset="1" stop-color="#F2B9AE"/>
</linearGradient>
<linearGradient id="paint29_linear_2022_804" x1="132.562" y1="64.1536" x2="132.446" y2="91.5892" gradientUnits="userSpaceOnUse">
<stop offset="0.0104167" stop-color="white" stop-opacity="0"/>
<stop offset="0.239583" stop-color="white"/>
<stop offset="0.817708" stop-color="white"/>
<stop offset="1" stop-color="white" stop-opacity="0"/>
</linearGradient>
<linearGradient id="paint30_linear_2022_804" x1="122.733" y1="65.483" x2="114.964" y2="126.542" gradientUnits="userSpaceOnUse">
<stop offset="0.0104167" stop-color="white" stop-opacity="0"/>
<stop offset="0.239583" stop-color="white"/>
<stop offset="0.817708" stop-color="white"/>
<stop offset="1" stop-color="white" stop-opacity="0"/>
</linearGradient>
<linearGradient id="paint31_linear_2022_804" x1="159.76" y1="93.3857" x2="132.932" y2="94.1717" gradientUnits="userSpaceOnUse">
<stop offset="0.0104167" stop-color="white" stop-opacity="0"/>
<stop offset="0.239583" stop-color="white"/>
<stop offset="0.817708" stop-color="white"/>
<stop offset="1" stop-color="white" stop-opacity="0"/>
</linearGradient>
<linearGradient id="paint32_linear_2022_804" x1="159.76" y1="93.3857" x2="132.932" y2="94.1717" gradientUnits="userSpaceOnUse">
<stop offset="0.0104167" stop-color="white" stop-opacity="0"/>
<stop offset="0.239583" stop-color="white"/>
<stop offset="0.817708" stop-color="white"/>
<stop offset="1" stop-color="white" stop-opacity="0"/>
</linearGradient>
<linearGradient id="paint33_linear_2022_804" x1="159.76" y1="93.3857" x2="132.932" y2="94.1717" gradientUnits="userSpaceOnUse">
<stop offset="0.0104167" stop-color="white" stop-opacity="0"/>
<stop offset="0.239583" stop-color="white"/>
<stop offset="0.817708" stop-color="white"/>
<stop offset="1" stop-color="white" stop-opacity="0"/>
</linearGradient>
<linearGradient id="paint34_linear_2022_804" x1="145.024" y1="87.0971" x2="130.311" y2="105.667" gradientUnits="userSpaceOnUse">
<stop offset="0.0104167" stop-color="white" stop-opacity="0"/>
<stop offset="0.279167" stop-color="white"/>
<stop offset="0.817708" stop-color="white"/>
<stop offset="1" stop-color="white" stop-opacity="0"/>
</linearGradient>
<linearGradient id="paint35_linear_2022_804" x1="164.868" y1="93.7738" x2="135.196" y2="115.305" gradientUnits="userSpaceOnUse">
<stop offset="0.0187499" stop-color="white" stop-opacity="0.07"/>
<stop offset="0.560417" stop-color="white"/>
<stop offset="1" stop-color="white" stop-opacity="0"/>
</linearGradient>
<linearGradient id="paint36_linear_2022_804" x1="143.569" y1="114.047" x2="108.403" y2="151.884" gradientUnits="userSpaceOnUse">
<stop offset="0.0187499" stop-color="white" stop-opacity="0.07"/>
<stop offset="0.560417" stop-color="white"/>
<stop offset="1" stop-color="white" stop-opacity="0"/>
</linearGradient>
<linearGradient id="paint37_linear_2022_804" x1="113.146" y1="57.6565" x2="80.2824" y2="69.4577" gradientUnits="userSpaceOnUse">
<stop offset="0.0187499" stop-color="white" stop-opacity="0.07"/>
<stop offset="0.560417" stop-color="white"/>
<stop offset="1" stop-color="white" stop-opacity="0"/>
</linearGradient>
<linearGradient id="paint38_linear_2022_804" x1="148.738" y1="100.745" x2="136.4" y2="116.537" gradientUnits="userSpaceOnUse">
<stop offset="0.0187499" stop-color="white" stop-opacity="0.07"/>
<stop offset="0.560417" stop-color="white"/>
<stop offset="1" stop-color="white" stop-opacity="0"/>
</linearGradient>
</defs>
</svg>
