<svg width="143" height="81" viewBox="0 0 143 81" fill="none" xmlns="http://www.w3.org/2000/svg">
<path d="M118.331 12.9476C106.565 10.7519 101.657 20.1032 100.674 25.0533C101.65 29.6644 106.102 38.8887 116.103 38.8979C126.104 38.907 137.853 26.5286 142.477 20.3382C138.85 20.3233 133.039 15.6923 118.331 12.9476Z" fill="url(#paint0_linear_2003_478)"/>
<path d="M118.749 23.6049C120.877 21.9178 125.569 18.4091 127.303 17.8714" stroke="white" stroke-width="1.44231"/>
<path d="M101.059 25.1349C113.967 23.3453 127.845 24.404 141.16 20.8133" stroke="white" stroke-width="1.44231"/>
<path d="M107.24 24.5591C109.329 21.8569 114.127 16.2067 116.607 15.2234" stroke="white" stroke-width="1.44231"/>
<path d="M104.767 24.7891C104.99 25.5912 106.161 31.1244 114.688 34.4446" stroke="white" stroke-width="1.44231"/>
<path d="M114.959 24.3107C115.741 25.6093 120.304 29.2202 125.308 30.2824" stroke="white" stroke-width="1.44231"/>
<path d="M107.505 43.1282C100.496 33.4256 90.4942 36.8155 86.3693 39.7233C83.8971 43.736 80.762 53.4869 87.9997 60.3888C95.2374 67.2907 112.282 66.4248 119.899 65.1291C117.282 62.6178 116.266 55.2566 107.505 43.1282Z" fill="url(#paint1_linear_2003_478)"/>
<path d="M100.46 51.1356C103.165 51.3812 108.982 52.0741 110.609 52.8807" stroke="white" stroke-width="1.44231"/>
<path d="M86.5921 40.0475C97.1755 47.6506 106.498 57.9859 118.618 64.5648" stroke="white" stroke-width="1.44231"/>
<path d="M91.4656 43.8917C94.8418 43.3747 102.213 42.5901 104.687 43.5883" stroke="white" stroke-width="1.44231"/>
<path d="M89.5166 42.354C89.1246 43.0883 86.1579 47.9035 90.0456 56.1878" stroke="white" stroke-width="1.44231"/>
<path d="M97.2283 49.0341C96.8998 50.5141 97.7152 56.2755 100.607 60.4947" stroke="white" stroke-width="1.44231"/>
<path d="M15.9935 42.9466C23.8168 33.4274 34.2191 37.9464 38.4423 41.3958C40.8731 45.8473 43.7494 56.3891 35.8083 62.9446C27.8673 69.5001 9.92368 66.9572 1.94453 64.8664C4.8162 62.4795 6.21432 54.8455 15.9935 42.9466Z" fill="url(#paint2_linear_2003_478)"/>
<path d="M23.0726 52.0322C20.2078 52.0309 14.0402 52.2012 12.2878 52.8924" stroke="white" stroke-width="1.44231"/>
<path d="M38.193 41.7152C26.6913 48.6866 16.3989 58.6484 3.3217 64.3967" stroke="white" stroke-width="1.44231"/>
<path d="M32.8817 45.2857C29.3427 44.4191 21.601 42.8888 18.946 43.6999" stroke="white" stroke-width="1.44231"/>
<path d="M35.0063 43.8576C35.3875 44.6664 38.3044 50.0082 33.8365 58.3366" stroke="white" stroke-width="1.44231"/>
<path d="M26.575 50.1348C26.8561 51.7208 25.741 57.6939 22.5033 61.8482" stroke="white" stroke-width="1.44231"/>
<path d="M102.191 28.4664C99.9577 31.2979 94.328 36.7391 89.673 35.8527C83.8543 34.7448 82.3172 31.9501 79.0585 31.6502" stroke="url(#paint3_linear_2003_478)" stroke-width="2.88462"/>
<path d="M87.0186 10.4476C83.1563 10.525 75.2842 11.7865 74.6937 16.2132C73.9556 21.7467 77.6683 24.6508 79.5531 25.2891" stroke="url(#paint4_linear_2003_478)" stroke-width="2.88462"/>
<path d="M87.0186 10.4476C83.1563 10.525 75.2842 11.7865 74.6937 16.2132C73.9556 21.7467 77.6683 24.6508 79.5531 25.2891" stroke="url(#paint5_linear_2003_478)" stroke-width="2.88462"/>
<path d="M87.311 5.97878C89.6247 8.37777 94.8233 9.30058 97.1333 9.46211C102.231 10.1534 102.813 14.5486 102.467 16.6597C104.679 20.9376 107.156 31.4063 99.3691 39.0579C91.5826 46.7094 76.5269 44.3395 69.9723 42.1982C64.0574 39.944 60.9983 35.225 60.2082 33.1472C54.6993 30.9679 53.9227 25.9017 54.6594 24.3083C55.2488 23.0337 55.0123 20.703 54.8204 19.6969C55.1744 15.8018 60.1402 12.9901 62.5788 12.0711C63.0957 8.9722 67.3645 3.75231 71.3885 1.64504C75.4124 -0.462235 84.4189 2.98004 87.311 5.97878Z" fill="url(#paint6_linear_2003_478)"/>
<path d="M64.1202 42.0396C54.1939 32.9533 55.4022 22.5342 58.4822 20.153C59.4267 19.1136 63.1635 15.606 70.5554 9.89112C79.7953 2.74748 111.454 20.6446 102.104 34.8478C92.7539 49.051 76.5282 53.3975 64.1202 42.0396Z" fill="#E57881"/>
<path fill-rule="evenodd" clip-rule="evenodd" d="M62.6314 11.8032C62.372 14.6452 62.7261 18.3687 64.6662 22.5022C65.2144 23.7073 66.4127 27.1009 66.8202 31.0343C68.5181 34.4259 75.3369 40.7019 89.0296 38.6735C92.8128 38.1486 101.132 35.425 104.513 28.7193C104.064 32.2215 102.6 35.8823 99.3689 39.0579C91.5824 46.7095 76.5266 44.3396 69.9721 42.1982C64.0572 39.9441 60.9981 35.225 60.2079 33.1472C54.6991 30.9679 53.9224 25.9017 54.6592 24.3084C55.2486 23.0337 55.0121 20.703 54.8202 19.697C55.1742 15.8018 60.1399 12.9901 62.5786 12.0712C62.5932 11.9835 62.6108 11.8941 62.6314 11.8032Z" fill="#ECABA3"/>
<path d="M69.7815 24.254C70.9073 23.2237 74.5005 19.1474 76.1564 17.238C76.1043 18.7299 78.579 21.9793 78.9775 22.2711C79.3759 22.5629 86.1309 28.0658 86.6749 28.0931L68.3175 27.1694C68.3365 26.6269 68.6558 25.2843 69.7815 24.254Z" fill="url(#paint7_linear_2003_478)"/>
<ellipse cx="6.53531" cy="5.97132" rx="6.53531" ry="5.97132" transform="matrix(-0.998737 -0.0502545 -0.0348991 0.999391 91.4915 11.0805)" fill="url(#paint8_linear_2003_478)"/>
<path d="M84.4073 17.8036C83.6052 17.19 82.6096 17.3684 82.1481 17.9743C81.6869 18.5801 81.7779 19.589 82.5796 20.2029C83.3817 20.8167 84.3773 20.6393 84.8389 20.0336C85.3005 19.4277 85.2094 18.4176 84.4073 17.8036Z" fill="#EA8994" stroke="url(#paint9_linear_2003_478)" stroke-width="2.88462"/>
<path d="M89.018 19.5157C91.1455 17.8836 90.7623 15.0745 90.3048 13.874C90.9673 14.4055 92.188 16.1154 91.7708 18.7031C91.3535 21.2908 87.736 25.0217 86.7746 25.2451C85.8133 25.4684 83.5395 24.2671 81.027 22.1026C77.4239 18.9989 78.4224 14.7706 78.4224 14.7706C78.6199 13.0143 80.8572 11.3606 81.6778 11.266C82.3343 11.1903 82.3045 11.524 82.2075 11.7003C80.979 11.7743 80.092 13.7677 79.7822 14.839C79.4723 15.9104 80.4749 18.4064 81.6609 19.5531C82.8468 20.6997 86.3586 21.5557 89.018 19.5157Z" fill="url(#paint10_linear_2003_478)"/>
<path d="M98.6204 21.4931C99.607 21.3253 100.35 22.6671 100.312 23.7521C100.274 24.8371 100.17 27.821 96.3615 31.5695C91.9991 35.8628 87.8292 35.352 86.1805 34.4539C84.4881 33.5082 80.398 31.5271 77.5772 31.1678C74.7564 30.8084 71.5202 27.7833 70.2546 26.3157C70.1265 26.0828 70.2558 25.5005 71.7978 25.0346C73.3397 24.5688 79.9203 26.485 83.0178 27.5014C77.2332 23.1736 76.8237 21.7815 76.1066 19.3438L76.0856 19.2722C75.5011 17.2863 77.4941 14.0443 78.6104 13.2852C77.7566 14.3292 77.7288 16.3325 78.0272 18.283C78.716 22.786 84.7396 25.0065 86.46 26.4518C88.1803 27.897 90.3039 29.4984 94.0085 28.7337C96.9722 28.122 97.5264 25.5141 97.4331 24.2865C97.4178 23.4253 97.6338 21.6608 98.6204 21.4931Z" fill="#F2B9AE"/>
<path d="M69.8462 6.787C72.721 2.31215 82.8828 4.04629 87.4147 10.796C72.9406 7.89378 67.8721 20.4103 69.8029 23.6324C71.3475 26.2101 71.4441 32.5464 71.2993 35.3923C70.74 34.5037 69.4855 32.7196 68.9416 32.6922C64.0903 27.2851 65.9569 12.8412 69.8462 6.787Z" fill="#F2B9AE"/>
<path d="M100.443 23.8946C100.547 26.119 99.759 31.0068 95.7745 32.7629C90.794 34.9579 92.2945 34.8975 87.9242 35.2211" stroke="url(#paint11_linear_2003_478)" stroke-width="1.44231"/>
<path d="M98.9177 28.5733C97.0032 32.6889 88.571 36.2047 81.1726 33.5227C73.7742 30.8407 73.8026 30.0269 71.3137 27.1843" stroke="url(#paint12_linear_2003_478)" stroke-width="1.44231"/>
<path d="M85.7065 20.7076C82.171 20.5297 80.8538 19.2406 80.0995 17.4364C79.3452 15.6322 78.6809 11.251 84.1485 10.7109" stroke="url(#paint13_linear_2003_478)" stroke-width="1.44231"/>
<path d="M85.7065 20.7076C82.171 20.5297 80.8538 19.2406 80.0995 17.4364C79.3452 15.6322 78.6809 11.251 84.1485 10.7109" stroke="url(#paint14_linear_2003_478)" stroke-width="1.44231"/>
<path d="M85.7065 20.7076C82.171 20.5297 80.8538 19.2406 80.0995 17.4364C79.3452 15.6322 78.6809 11.251 84.1485 10.7109" stroke="url(#paint15_linear_2003_478)" stroke-width="1.44231"/>
<path d="M89.8714 18.4717C85.9219 22.349 82.0077 21.3142 80.6248 18.0065C79.2419 14.6987 81.1241 11.51 86.5917 10.9699" stroke="url(#paint16_linear_2003_478)" stroke-width="1.44231"/>
<path d="M86.7517 10.2986C86.2315 9.59311 79.1112 2.84906 73.329 4.59612C67.5468 6.34319 65.3352 15.0633 66.0218 22.7064" stroke="url(#paint17_linear_2003_478)" stroke-width="1.44231"/>
<path d="M82.2417 6.81061C70.4459 1.32584 67.1186 14.5826 66.0972 20.5361C65.242 25.5201 69.6915 26.831 71.564 35.6207" stroke="white" stroke-width="1.44231"/>
<path d="M62.3071 12.0577C57.5953 14.3568 50.0007 21.1937 57.3163 30.1486C66.4608 41.3423 71.013 43.6094 76.1756 44.005" stroke="url(#paint18_linear_2003_478)" stroke-width="1.44231"/>
<path d="M104.169 30.3322C103.423 32.1968 103.251 41.0195 91.7009 44.1067C82.4607 46.5765 71.3929 43.1302 67.0141 41.0983" stroke="url(#paint19_linear_2003_478)" stroke-width="1.44231"/>
<path d="M76.4708 16.0309C75.1559 17.2781 74.2745 21.192 81.2686 26.87M78.3333 13.4072C75.2707 15.2911 72.7729 24.4045 89.3611 29.1793" stroke="url(#paint20_linear_2003_478)" stroke-width="1.44231"/>
<path d="M24.7688 31.6641C26.6208 34.0125 31.2902 38.5256 35.151 37.7904C39.9771 36.8714 41.252 34.5535 43.9548 34.3048" stroke="url(#paint21_linear_2003_478)" stroke-width="2.88462"/>
<path d="M37.3528 16.7192C40.5562 16.7834 47.0853 17.8296 47.5751 21.5012C48.1873 26.0907 45.1079 28.4994 43.5447 29.0288" stroke="url(#paint22_linear_2003_478)" stroke-width="2.88462"/>
<path d="M37.3528 16.7192C40.5562 16.7834 47.0853 17.8296 47.5751 21.5012C48.1873 26.0907 45.1079 28.4994 43.5447 29.0288" stroke="url(#paint23_linear_2003_478)" stroke-width="2.88462"/>
<path d="M37.11 13.0128C35.191 15.0025 30.8793 15.7679 28.9633 15.9019C24.7352 16.4752 24.2524 20.1206 24.5395 21.8716C22.7051 25.4197 20.6508 34.1025 27.1089 40.4488C33.5671 46.795 46.0544 44.8294 51.4908 43.0534C56.3967 41.1838 58.9339 37.2698 59.5893 35.5464C64.1584 33.7389 64.8025 29.537 64.1915 28.2154C63.7026 27.1582 63.8988 25.2251 64.0579 24.3907C63.7643 21.16 59.6457 18.828 57.6231 18.0658C57.1944 15.4955 53.6538 11.1661 50.3163 9.41832C46.9788 7.67054 39.5088 10.5256 37.11 13.0128Z" fill="url(#paint24_linear_2003_478)"/>
<path d="M56.3446 42.9218C64.5776 35.3855 63.5753 26.7439 61.0208 24.7689C60.2375 23.9068 57.1381 20.9976 51.0072 16.2576C43.3435 10.3326 17.0854 25.1766 24.8405 36.9568C32.5957 48.7371 46.0533 52.3421 56.3446 42.9218Z" fill="#E57881"/>
<path fill-rule="evenodd" clip-rule="evenodd" d="M57.5793 17.8436C57.7943 20.2008 57.5007 23.2891 55.8915 26.7174C55.4368 27.717 54.443 30.5316 54.105 33.7941C52.6968 36.6071 47.0412 41.8124 35.6843 40.1301C32.5465 39.6947 25.6464 37.4358 22.8425 31.874C23.2145 34.7787 24.4286 37.815 27.1089 40.4489C33.5671 46.7951 46.0544 44.8296 51.4908 43.0535C56.3967 41.1839 58.9339 37.2699 59.5893 35.5465C64.1584 33.739 64.8025 29.5371 64.1914 28.2155C63.7026 27.1583 63.8987 25.2252 64.0579 24.3908C63.7643 21.1601 59.6457 18.8281 57.623 18.0659C57.6109 17.9932 57.5963 17.9191 57.5793 17.8436Z" fill="#ECABA3"/>
<path d="M51.6493 28.1703C50.7156 27.3158 47.7353 23.9348 46.3619 22.3511C46.4051 23.5885 44.3526 26.2837 44.0221 26.5257C43.6916 26.7677 38.0889 31.3318 37.6378 31.3545L52.8635 30.5884C52.8478 30.1384 52.583 29.0249 51.6493 28.1703Z" fill="url(#paint25_linear_2003_478)"/>
<ellipse cx="5.42043" cy="4.95266" rx="5.42043" ry="4.95266" transform="matrix(0.998737 -0.0502545 0.0348991 0.999391 33.6428 17.2441)" fill="url(#paint26_linear_2003_478)"/>
<mask id="path-48-inside-1_2003_478" fill="white">
<ellipse cx="2.59159" cy="2.45636" rx="2.59159" ry="2.45636" transform="matrix(0.79982 -0.612127 0.60158 0.78972 36.7258 23.4622)"/>
</mask>
<ellipse cx="2.59159" cy="2.45636" rx="2.59159" ry="2.45636" transform="matrix(0.79982 -0.612127 0.60158 0.78972 36.7258 23.4622)" fill="#EA8994"/>
<path d="M42.3491 22.2292L40.042 23.995C39.9398 23.8609 39.9257 23.7134 39.9403 23.6269C39.9543 23.5439 39.9941 23.4963 40.0187 23.4774L41.754 25.7555L43.4894 28.0335C45.7903 26.2725 46.5173 22.9064 44.6563 20.4635L42.3491 22.2292ZM41.754 25.7555L40.0187 23.4774C40.0433 23.4586 40.0997 23.4327 40.1832 23.441C40.2704 23.4496 40.4086 23.5022 40.5107 23.6362L38.2035 25.402L35.8964 27.1677C37.7573 29.6107 41.1884 29.7945 43.4894 28.0335L41.754 25.7555ZM38.2035 25.402L40.5107 23.6362C40.6128 23.7703 40.627 23.9178 40.6124 24.0044C40.5984 24.0873 40.5586 24.135 40.534 24.1538L38.7986 21.8758L37.0633 19.5977C34.7624 21.3587 34.0354 24.7248 35.8964 27.1677L38.2035 25.402ZM38.7986 21.8758L40.534 24.1538C40.5093 24.1727 40.453 24.1986 40.3695 24.1903C40.2823 24.1816 40.1441 24.129 40.042 23.995L42.3491 22.2292L44.6563 20.4635C42.7954 18.0205 39.3642 17.8368 37.0633 19.5977L38.7986 21.8758Z" fill="url(#paint27_linear_2003_478)" mask="url(#path-48-inside-1_2003_478)"/>
<path d="M35.6948 24.2404C33.9302 22.8867 34.2481 20.5569 34.6275 19.5611C34.078 20.002 33.0655 21.4202 33.4116 23.5664C33.7577 25.7127 36.7581 28.8071 37.5555 28.9924C38.3528 29.1777 40.2387 28.1812 42.3226 26.386C45.311 23.8118 44.4829 20.3048 44.4829 20.3048C44.319 18.8481 42.4634 17.4765 41.7828 17.3981C41.2383 17.3353 41.263 17.612 41.3435 17.7582C42.3624 17.8196 43.0981 19.473 43.355 20.3616C43.612 21.2501 42.7805 23.3204 41.7969 24.2714C40.8132 25.2224 37.9005 25.9324 35.6948 24.2404Z" fill="url(#paint28_linear_2003_478)"/>
<path d="M27.7303 25.8805C26.912 25.7414 26.2955 26.8542 26.327 27.7541C26.3584 28.6541 26.4448 31.1289 29.6039 34.2379C33.2221 37.7988 36.6806 37.3752 38.048 36.6303C39.4517 35.8459 42.844 34.2028 45.1836 33.9047C47.5232 33.6067 50.2074 31.0976 51.2571 29.8804C51.3633 29.6872 51.256 29.2043 49.9772 28.8179C48.6983 28.4315 43.2403 30.0208 40.6712 30.8638C45.469 27.2743 45.8086 26.1197 46.4034 24.0979L46.4208 24.0385C46.9056 22.3914 45.2526 19.7024 44.3267 19.0728C45.0349 19.9387 45.0579 21.6003 44.8104 23.218C44.2391 26.9529 39.2431 28.7945 37.8162 29.9932C36.3893 31.1919 34.628 32.5201 31.5554 31.8859C29.0973 31.3786 28.6376 29.2155 28.715 28.1974C28.7278 27.4831 28.5486 26.0196 27.7303 25.8805Z" fill="#F2B9AE"/>
<path d="M51.5955 13.6832C49.2112 9.97173 40.7829 11.41 37.0241 17.0083C49.029 14.6012 53.2329 24.9825 51.6315 27.6549C50.3504 29.7929 50.2703 35.0482 50.3903 37.4086C50.8542 36.6716 51.8947 35.1919 52.3458 35.1692C56.3695 30.6845 54.8213 18.7046 51.5955 13.6832Z" fill="#F2B9AE"/>
<path d="M26.218 27.8723C26.1318 29.7172 26.7856 33.7712 30.0903 35.2277C34.2212 37.0482 32.9766 36.9981 36.6014 37.2665" stroke="url(#paint29_linear_2003_478)" stroke-width="1.44231"/>
<path d="M27.4834 31.7527C29.0714 35.1662 36.065 38.0823 42.2013 35.8578C48.3376 33.6333 48.314 32.9584 50.3783 30.6007" stroke="url(#paint30_linear_2003_478)" stroke-width="1.44231"/>
<path d="M38.4408 25.2289C41.3732 25.0813 42.4656 24.0121 43.0913 22.5157C43.7169 21.0193 44.2679 17.3855 39.733 16.9375" stroke="url(#paint31_linear_2003_478)" stroke-width="1.44231"/>
<path d="M38.4408 25.2289C41.3732 25.0813 42.4656 24.0121 43.0913 22.5157C43.7169 21.0193 44.2679 17.3855 39.733 16.9375" stroke="url(#paint32_linear_2003_478)" stroke-width="1.44231"/>
<path d="M38.4408 25.2289C41.3732 25.0813 42.4656 24.0121 43.0913 22.5157C43.7169 21.0193 44.2679 17.3855 39.733 16.9375" stroke="url(#paint33_linear_2003_478)" stroke-width="1.44231"/>
<path d="M34.9863 23.3745C38.2621 26.5903 41.5085 25.7321 42.6555 22.9886C43.8025 20.2451 42.2414 17.6003 37.7065 17.1524" stroke="url(#paint34_linear_2003_478)" stroke-width="1.44231"/>
<path d="M37.5741 16.5956C38.0056 16.0105 43.9113 10.4169 48.7071 11.8659C53.5029 13.3149 55.3372 20.5475 54.7677 26.8867" stroke="url(#paint35_linear_2003_478)" stroke-width="1.44231"/>
<path d="M41.3146 13.7026C51.0981 9.15352 53.8577 20.1488 54.705 25.0866C55.4142 29.2204 51.7238 30.3076 50.1707 37.5979" stroke="white" stroke-width="1.44231"/>
<path d="M57.849 18.0545C61.7569 19.9614 68.056 25.632 61.9884 33.0593C54.4039 42.3434 50.6282 44.2237 46.3464 44.5519" stroke="url(#paint36_linear_2003_478)" stroke-width="1.44231"/>
<path d="M23.1282 33.2117C23.7471 34.7582 23.8896 42.0758 33.4695 44.6364C41.1333 46.6849 50.313 43.8264 53.9449 42.1412" stroke="url(#paint37_linear_2003_478)" stroke-width="1.44231"/>
<path d="M46.1008 21.35C47.1914 22.3844 47.9224 25.6307 42.1214 30.34M44.556 19.1739C47.0962 20.7365 49.1678 28.2951 35.4094 32.2554" stroke="url(#paint38_linear_2003_478)" stroke-width="1.44231"/>
<defs>
<linearGradient id="paint0_linear_2003_478" x1="123.531" y1="14.0222" x2="118.089" y2="39.6588" gradientUnits="userSpaceOnUse">
<stop stop-color="#ACA97D"/>
<stop offset="1" stop-color="#7D7A5F"/>
</linearGradient>
<linearGradient id="paint1_linear_2003_478" x1="110.531" y1="47.492" x2="88.9137" y2="62.3092" gradientUnits="userSpaceOnUse">
<stop stop-color="#ACA97D"/>
<stop offset="1" stop-color="#7D7A5F"/>
</linearGradient>
<linearGradient id="paint2_linear_2003_478" x1="39.0725" y1="41.885" x2="3.2674" y2="65.2392" gradientUnits="userSpaceOnUse">
<stop stop-color="#828B3A"/>
<stop offset="1" stop-color="#B5C37F"/>
</linearGradient>
<linearGradient id="paint3_linear_2003_478" x1="90.7003" y1="27.8883" x2="90.2954" y2="35.9354" gradientUnits="userSpaceOnUse">
<stop stop-color="white" stop-opacity="0"/>
<stop offset="1" stop-color="white"/>
</linearGradient>
<linearGradient id="paint4_linear_2003_478" x1="80.9411" y1="10.1418" x2="80.1774" y2="25.3206" gradientUnits="userSpaceOnUse">
<stop stop-color="white" stop-opacity="0"/>
<stop offset="1" stop-color="white"/>
</linearGradient>
<linearGradient id="paint5_linear_2003_478" x1="80.9411" y1="10.1418" x2="80.1774" y2="25.3206" gradientUnits="userSpaceOnUse">
<stop stop-color="white" stop-opacity="0"/>
<stop offset="1" stop-color="white"/>
</linearGradient>
<linearGradient id="paint6_linear_2003_478" x1="98.0649" y1="13.9926" x2="61.5217" y2="36.6486" gradientUnits="userSpaceOnUse">
<stop stop-color="#ED929A"/>
<stop offset="1" stop-color="#DA616C"/>
</linearGradient>
<linearGradient id="paint7_linear_2003_478" x1="73.0654" y1="19.9356" x2="78.2454" y2="29.0815" gradientUnits="userSpaceOnUse">
<stop stop-color="#D9D9D9" stop-opacity="0.37"/>
<stop offset="0.154167" stop-color="#DEA5AB" stop-opacity="0.713219"/>
<stop offset="1" stop-color="#E27A84"/>
</linearGradient>
<linearGradient id="paint8_linear_2003_478" x1="6.53531" y1="0" x2="6.53531" y2="11.9426" gradientUnits="userSpaceOnUse">
<stop stop-color="#F48C94"/>
<stop offset="0.945833" stop-color="#B56C75"/>
</linearGradient>
<linearGradient id="paint9_linear_2003_478" x1="85.2753" y1="16.6648" x2="83.8789" y2="19.315" gradientUnits="userSpaceOnUse">
<stop stop-color="#F5B7BE"/>
<stop offset="1" stop-color="#EE9CA5" stop-opacity="0"/>
</linearGradient>
<linearGradient id="paint10_linear_2003_478" x1="85.1565" y1="13.0714" x2="84.2086" y2="31.9093" gradientUnits="userSpaceOnUse">
<stop stop-color="#F1B7AD"/>
<stop offset="1" stop-color="#F2B9AE"/>
</linearGradient>
<linearGradient id="paint11_linear_2003_478" x1="101.188" y1="23.9321" x2="88.0036" y2="23.9878" gradientUnits="userSpaceOnUse">
<stop offset="0.0104167" stop-color="white" stop-opacity="0"/>
<stop offset="0.239583" stop-color="white"/>
<stop offset="0.817708" stop-color="white"/>
<stop offset="1" stop-color="white" stop-opacity="0"/>
</linearGradient>
<linearGradient id="paint12_linear_2003_478" x1="100.549" y1="28.6554" x2="71.2062" y2="32.3892" gradientUnits="userSpaceOnUse">
<stop offset="0.0104167" stop-color="white" stop-opacity="0"/>
<stop offset="0.239583" stop-color="white"/>
<stop offset="0.817708" stop-color="white"/>
<stop offset="1" stop-color="white" stop-opacity="0"/>
</linearGradient>
<linearGradient id="paint13_linear_2003_478" x1="87.1401" y1="10.8614" x2="86.7624" y2="23.754" gradientUnits="userSpaceOnUse">
<stop offset="0.0104167" stop-color="white" stop-opacity="0"/>
<stop offset="0.239583" stop-color="white"/>
<stop offset="0.817708" stop-color="white"/>
<stop offset="1" stop-color="white" stop-opacity="0"/>
</linearGradient>
<linearGradient id="paint14_linear_2003_478" x1="87.1401" y1="10.8614" x2="86.7624" y2="23.754" gradientUnits="userSpaceOnUse">
<stop offset="0.0104167" stop-color="white" stop-opacity="0"/>
<stop offset="0.239583" stop-color="white"/>
<stop offset="0.817708" stop-color="white"/>
<stop offset="1" stop-color="white" stop-opacity="0"/>
</linearGradient>
<linearGradient id="paint15_linear_2003_478" x1="87.1401" y1="10.8614" x2="86.7624" y2="23.754" gradientUnits="userSpaceOnUse">
<stop offset="0.0104167" stop-color="white" stop-opacity="0"/>
<stop offset="0.239583" stop-color="white"/>
<stop offset="0.817708" stop-color="white"/>
<stop offset="1" stop-color="white" stop-opacity="0"/>
</linearGradient>
<linearGradient id="paint16_linear_2003_478" x1="90.1623" y1="17.9429" x2="81.2381" y2="25.0138" gradientUnits="userSpaceOnUse">
<stop offset="0.0104167" stop-color="white" stop-opacity="0"/>
<stop offset="0.279167" stop-color="white"/>
<stop offset="0.817708" stop-color="white"/>
<stop offset="1" stop-color="white" stop-opacity="0"/>
</linearGradient>
<linearGradient id="paint17_linear_2003_478" x1="86.954" y1="8.40666" x2="76.6067" y2="22.6661" gradientUnits="userSpaceOnUse">
<stop offset="0.0187499" stop-color="white" stop-opacity="0.07"/>
<stop offset="0.560417" stop-color="white"/>
<stop offset="1" stop-color="white" stop-opacity="0"/>
</linearGradient>
<linearGradient id="paint18_linear_2003_478" x1="77.2115" y1="18.6421" x2="59.0282" y2="35.5419" gradientUnits="userSpaceOnUse">
<stop offset="0.0187499" stop-color="white" stop-opacity="0.07"/>
<stop offset="0.560417" stop-color="white"/>
<stop offset="1" stop-color="white" stop-opacity="0"/>
</linearGradient>
<linearGradient id="paint19_linear_2003_478" x1="104.311" y1="33.2627" x2="98.6396" y2="49.056" gradientUnits="userSpaceOnUse">
<stop offset="0.0187499" stop-color="white" stop-opacity="0.07"/>
<stop offset="0.560417" stop-color="white"/>
<stop offset="1" stop-color="white" stop-opacity="0"/>
</linearGradient>
<linearGradient id="paint20_linear_2003_478" x1="83.6035" y1="16.1584" x2="76.0142" y2="22.0873" gradientUnits="userSpaceOnUse">
<stop offset="0.0187499" stop-color="white" stop-opacity="0.07"/>
<stop offset="0.560417" stop-color="white"/>
<stop offset="1" stop-color="white" stop-opacity="0"/>
</linearGradient>
<linearGradient id="paint21_linear_2003_478" x1="34.299" y1="31.1846" x2="34.6348" y2="37.8589" gradientUnits="userSpaceOnUse">
<stop stop-color="white" stop-opacity="0"/>
<stop offset="1" stop-color="white"/>
</linearGradient>
<linearGradient id="paint22_linear_2003_478" x1="42.3935" y1="16.4655" x2="43.0269" y2="29.0549" gradientUnits="userSpaceOnUse">
<stop stop-color="white" stop-opacity="0"/>
<stop offset="1" stop-color="white"/>
</linearGradient>
<linearGradient id="paint23_linear_2003_478" x1="42.3935" y1="16.4655" x2="43.0269" y2="29.0549" gradientUnits="userSpaceOnUse">
<stop stop-color="white" stop-opacity="0"/>
<stop offset="1" stop-color="white"/>
</linearGradient>
<linearGradient id="paint24_linear_2003_478" x1="28.1907" y1="19.6595" x2="58.4999" y2="38.4506" gradientUnits="userSpaceOnUse">
<stop stop-color="#ED929A"/>
<stop offset="1" stop-color="#DA616C"/>
</linearGradient>
<linearGradient id="paint25_linear_2003_478" x1="48.9256" y1="24.5886" x2="44.6293" y2="32.1743" gradientUnits="userSpaceOnUse">
<stop stop-color="#D9D9D9" stop-opacity="0.37"/>
<stop offset="0.154167" stop-color="#DEA5AB" stop-opacity="0.713219"/>
<stop offset="1" stop-color="#E27A84"/>
</linearGradient>
<linearGradient id="paint26_linear_2003_478" x1="5.42043" y1="0" x2="5.42043" y2="9.90531" gradientUnits="userSpaceOnUse">
<stop stop-color="#F48C94"/>
<stop offset="0.945833" stop-color="#B56C75"/>
</linearGradient>
<linearGradient id="paint27_linear_2003_478" x1="38.7986" y1="21.8758" x2="39.9568" y2="24.0739" gradientUnits="userSpaceOnUse">
<stop stop-color="#F5B7BE"/>
<stop offset="1" stop-color="#EE9CA5" stop-opacity="0"/>
</linearGradient>
<linearGradient id="paint28_linear_2003_478" x1="38.8976" y1="18.8955" x2="39.6838" y2="34.5198" gradientUnits="userSpaceOnUse">
<stop stop-color="#F1B7AD"/>
<stop offset="1" stop-color="#F2B9AE"/>
</linearGradient>
<linearGradient id="paint29_linear_2003_478" x1="25.6001" y1="27.9034" x2="36.5356" y2="27.9495" gradientUnits="userSpaceOnUse">
<stop offset="0.0104167" stop-color="white" stop-opacity="0"/>
<stop offset="0.239583" stop-color="white"/>
<stop offset="0.817708" stop-color="white"/>
<stop offset="1" stop-color="white" stop-opacity="0"/>
</linearGradient>
<linearGradient id="paint30_linear_2003_478" x1="26.13" y1="31.8208" x2="50.4675" y2="34.9177" gradientUnits="userSpaceOnUse">
<stop offset="0.0104167" stop-color="white" stop-opacity="0"/>
<stop offset="0.239583" stop-color="white"/>
<stop offset="0.817708" stop-color="white"/>
<stop offset="1" stop-color="white" stop-opacity="0"/>
</linearGradient>
<linearGradient id="paint31_linear_2003_478" x1="37.2518" y1="17.0624" x2="37.5651" y2="27.7556" gradientUnits="userSpaceOnUse">
<stop offset="0.0104167" stop-color="white" stop-opacity="0"/>
<stop offset="0.239583" stop-color="white"/>
<stop offset="0.817708" stop-color="white"/>
<stop offset="1" stop-color="white" stop-opacity="0"/>
</linearGradient>
<linearGradient id="paint32_linear_2003_478" x1="37.2518" y1="17.0624" x2="37.5651" y2="27.7556" gradientUnits="userSpaceOnUse">
<stop offset="0.0104167" stop-color="white" stop-opacity="0"/>
<stop offset="0.239583" stop-color="white"/>
<stop offset="0.817708" stop-color="white"/>
<stop offset="1" stop-color="white" stop-opacity="0"/>
</linearGradient>
<linearGradient id="paint33_linear_2003_478" x1="37.2518" y1="17.0624" x2="37.5651" y2="27.7556" gradientUnits="userSpaceOnUse">
<stop offset="0.0104167" stop-color="white" stop-opacity="0"/>
<stop offset="0.239583" stop-color="white"/>
<stop offset="0.817708" stop-color="white"/>
<stop offset="1" stop-color="white" stop-opacity="0"/>
</linearGradient>
<linearGradient id="paint34_linear_2003_478" x1="34.745" y1="22.9359" x2="42.1468" y2="28.8005" gradientUnits="userSpaceOnUse">
<stop offset="0.0104167" stop-color="white" stop-opacity="0"/>
<stop offset="0.279167" stop-color="white"/>
<stop offset="0.817708" stop-color="white"/>
<stop offset="1" stop-color="white" stop-opacity="0"/>
</linearGradient>
<linearGradient id="paint35_linear_2003_478" x1="37.4064" y1="15.0264" x2="45.9885" y2="26.8533" gradientUnits="userSpaceOnUse">
<stop offset="0.0187499" stop-color="white" stop-opacity="0.07"/>
<stop offset="0.560417" stop-color="white"/>
<stop offset="1" stop-color="white" stop-opacity="0"/>
</linearGradient>
<linearGradient id="paint36_linear_2003_478" x1="45.4872" y1="23.5157" x2="60.5685" y2="37.5325" gradientUnits="userSpaceOnUse">
<stop offset="0.0187499" stop-color="white" stop-opacity="0.07"/>
<stop offset="0.560417" stop-color="white"/>
<stop offset="1" stop-color="white" stop-opacity="0"/>
</linearGradient>
<linearGradient id="paint37_linear_2003_478" x1="23.0107" y1="35.6423" x2="27.7145" y2="48.7413" gradientUnits="userSpaceOnUse">
<stop offset="0.0187499" stop-color="white" stop-opacity="0.07"/>
<stop offset="0.560417" stop-color="white"/>
<stop offset="1" stop-color="white" stop-opacity="0"/>
</linearGradient>
<linearGradient id="paint38_linear_2003_478" x1="40.1849" y1="21.4558" x2="46.4795" y2="26.3733" gradientUnits="userSpaceOnUse">
<stop offset="0.0187499" stop-color="white" stop-opacity="0.07"/>
<stop offset="0.560417" stop-color="white"/>
<stop offset="1" stop-color="white" stop-opacity="0"/>
</linearGradient>
</defs>
</svg>
