<svg width="56" height="63" viewBox="0 0 56 63" fill="none" xmlns="http://www.w3.org/2000/svg">
<g filter="url(#filter0_dddd_2004_642)">
<path d="M41.2451 17.7867C41.0007 20.4894 39.6903 26.2271 36.4037 27.5571C32.2955 29.2197 30.1868 28.0726 28.0172 29.2071" stroke="url(#paint0_linear_2004_642)" stroke-width="2"/>
<path d="M24.344 12.53C21.9496 14.1488 17.5208 18.1481 18.9607 21.1945C20.7606 25.0026 24.2807 25.3347 25.7257 24.9733" stroke="url(#paint1_linear_2004_642)" stroke-width="2"/>
<path d="M24.344 12.53C21.9496 14.1488 17.5208 18.1481 18.9607 21.1945C20.7606 25.0026 24.2807 25.3347 25.7257 24.9733" stroke="url(#paint2_linear_2004_642)" stroke-width="2"/>
<path d="M22.6997 9.57802C25.1343 10.1585 28.7773 8.63065 30.2944 7.79414C33.7793 6.16048 35.9428 8.7103 36.5889 10.1894C39.7281 12.0025 45.5663 17.6327 43.8052 25.6483C42.0441 33.6639 31.6176 38.2808 26.6244 39.5872C21.987 40.5622 18.1351 38.8138 16.7888 37.8177C12.437 38.6751 9.87678 35.779 9.68778 34.4694C9.53658 33.4217 8.43466 32.0402 7.9026 31.4804C6.53159 28.8671 8.50064 25.0663 9.65654 23.4926C8.71356 21.3179 9.25975 16.2736 10.9254 13.3021C12.591 10.3307 19.6564 8.85237 22.6997 9.57802Z" fill="url(#paint3_linear_2004_642)"/>
<path d="M22.8839 41.8652C12.9319 40.1393 9.42893 33.0427 10.3895 30.2813C10.5576 29.2384 11.47 25.4959 13.7755 18.8685C16.6573 10.5841 43.8645 9.06288 43.8012 21.8676C43.7379 34.6724 35.3239 44.0227 22.8839 41.8652Z" fill="#FFE5E7"/>
<path fill-rule="evenodd" clip-rule="evenodd" d="M9.5796 23.3011C10.5793 25.2083 12.3248 27.4249 15.2343 29.2569C16.0716 29.7981 18.2125 31.4625 20.0775 33.7906C22.5313 35.2507 29.3817 36.458 37.153 29.6068C39.3146 27.7364 43.4263 22.6284 42.8068 17.0031C43.9576 19.4057 44.5356 22.3215 43.8047 25.6482C42.0436 33.6638 31.6171 38.2807 26.624 39.5871C21.9865 40.5622 18.1346 38.8137 16.7883 37.8176C12.4365 38.675 9.87632 35.7789 9.68733 34.4693C9.53613 33.4216 8.43421 32.0401 7.90215 31.4804C6.53113 28.8671 8.50018 25.0662 9.65608 23.4925C9.6294 23.431 9.6039 23.3671 9.5796 23.3011Z" fill="#ECABA3"/>
<path d="M19.1644 28.2885C19.4501 27.1777 20.0397 23.133 20.2988 21.2495C20.8763 22.2165 23.76 23.2707 24.1297 23.2938C24.4993 23.3168 30.9934 24.0599 31.3463 23.8562L19.4374 30.7318C19.2274 30.3801 18.8788 29.3992 19.1644 28.2885Z" fill="url(#paint4_linear_2004_642)"/>
<ellipse cx="4.88929" cy="4.50543" rx="4.88929" ry="4.50543" transform="matrix(-0.866025 0.5 0.512766 0.858528 27.4126 11.1129)" fill="url(#paint5_linear_2004_642)"/>
<path d="M25.7196 18.1702C24.9262 18.1038 24.3268 18.6488 24.2807 19.274C24.2348 19.8991 24.7472 20.5372 25.5406 20.6036C26.3337 20.6697 26.9324 20.1247 26.9784 19.4997C27.0244 18.8746 26.5128 18.2368 25.7196 18.1702Z" fill="#FAE2E5" stroke="url(#paint6_linear_2004_642)" stroke-width="2"/>
<path d="M29.3092 17.4665C29.978 15.5671 28.5882 13.942 27.8097 13.3668C28.4433 13.4345 29.9096 14.0224 30.7059 15.8325C31.5023 17.6426 30.7562 21.4782 30.2437 22.0106C29.7313 22.5429 27.8116 22.7054 25.3479 22.3544C21.8151 21.8511 20.7127 18.7647 20.7127 18.7647C20.1183 17.571 20.8472 15.6133 21.3239 15.2198C21.7054 14.905 21.8231 15.1286 21.8343 15.2798C21.0929 15.8261 21.3512 17.4503 21.5948 18.2554C21.8384 19.0606 23.4892 20.2355 24.7032 20.4804C25.9172 20.7253 28.4732 19.8407 29.3092 17.4665Z" fill="url(#paint7_linear_2004_642)"/>
<path d="M36.1497 14.8171C36.7008 14.3098 37.7165 14.8583 38.1365 15.5616C38.5566 16.2649 39.7117 18.1989 38.8526 22.1234C37.8686 26.6183 35.0404 27.9893 33.6374 28.09C32.1875 28.1783 28.808 28.5847 26.8891 29.5034C24.9703 30.4221 21.7 29.8196 20.3047 29.4035C20.129 29.3079 19.972 28.8862 20.75 27.9642C21.528 27.0421 26.4454 25.5823 28.8068 24.9677C23.3502 24.5713 22.5606 23.845 21.0862 22.5682C19.9067 21.5468 19.8324 18.6814 20.2231 17.7465C20.1138 18.7553 20.9159 20.0367 21.9011 21.1519C24.1758 23.7268 28.8678 22.6863 30.5396 22.9033C32.2114 23.1203 34.2004 23.2724 36.2146 21.2819C37.826 19.6895 37.1073 17.8109 36.5466 17.0707C36.1846 16.5309 35.5985 15.3245 36.1497 14.8171Z" fill="#F2B9AE"/>
<path d="M12.0601 17.1887C12.0353 13.1833 19.1277 10.1526 24.7354 12.5897C14.4565 16.6326 16.3927 26.6278 18.9236 27.8858C20.9482 28.8922 23.6008 32.87 24.674 34.733C23.9592 34.397 22.4414 33.7758 22.0886 33.9795C16.8295 32.5233 12.0935 22.6076 12.0601 17.1887Z" fill="#F2B9AE"/>
<path d="M38.2775 15.599C39.2527 16.9669 40.757 20.386 38.9725 23.1187C36.7419 26.5346 37.6598 25.8864 35.047 27.8678" stroke="url(#paint8_linear_2004_642)"/>
<path d="M39.2329 19.185C39.7138 22.5723 35.8554 28.2284 30.1111 29.5351C24.3667 30.8418 24.0517 30.3143 21.3256 29.5238" stroke="url(#paint9_linear_2004_642)"/>
<path d="M27.7167 19.5675C25.4231 20.8917 24.0684 20.6098 22.8566 19.7726C21.6447 18.9353 19.4353 16.4278 22.6488 13.8631" stroke="url(#paint10_linear_2004_642)"/>
<path d="M27.7167 19.5675C25.4231 20.8917 24.0684 20.6098 22.8566 19.7726C21.6447 18.9353 19.4353 16.4278 22.6488 13.8631" stroke="url(#paint11_linear_2004_642)"/>
<path d="M27.7167 19.5675C25.4231 20.8917 24.0684 20.6098 22.8566 19.7726C21.6447 18.9353 19.4353 16.4278 22.6488 13.8631" stroke="url(#paint12_linear_2004_642)"/>
<path d="M29.4183 16.4574C28.5235 20.5208 25.6415 21.4556 23.4198 19.9207C21.198 18.3857 21.0759 15.5991 24.2895 13.0344" stroke="url(#paint13_linear_2004_642)"/>
<path d="M24.1152 12.544C23.4998 12.3082 16.2685 10.9267 13.3511 14.3844C10.4338 17.8421 12.6116 24.2693 16.1694 28.8357" stroke="url(#paint14_linear_2004_642)"/>
<path d="M19.8559 12.1659C10.2029 13.4829 13.5357 23.2397 15.3294 27.4292C16.831 30.9365 20.1621 29.9591 24.9338 34.7705" stroke="white"/>
<path d="M9.47986 23.5946C7.46069 26.9672 5.48694 34.3884 13.7452 37.0922C24.0681 40.472 27.8549 40.059 31.2596 38.2116" stroke="url(#paint15_linear_2004_642)"/>
<path d="M43.251 18.1659C43.545 19.6513 47.046 25.3145 41.0537 31.9662C36.2599 37.2876 27.898 39.6011 24.3163 40.0927" stroke="url(#paint16_linear_2004_642)"/>
<path d="M20.0023 20.3564C19.6866 21.6816 20.734 24.5211 27.4499 25.278M20.099 17.9361C18.9459 20.3752 21.1048 27.168 33.4778 23.453" stroke="url(#paint17_linear_2004_642)"/>
</g>
<defs>
<filter id="filter0_dddd_2004_642" x="4.20532" y="6.26685" width="50.8313" height="55.9088" filterUnits="userSpaceOnUse" color-interpolation-filters="sRGB">
<feFlood flood-opacity="0" result="BackgroundImageFix"/>
<feColorMatrix in="SourceAlpha" type="matrix" values="0 0 0 0 0 0 0 0 0 0 0 0 0 0 0 0 0 0 127 0" result="hardAlpha"/>
<feOffset dy="1"/>
<feGaussianBlur stdDeviation="1"/>
<feColorMatrix type="matrix" values="0 0 0 0 0 0 0 0 0 0 0 0 0 0 0 0 0 0 0.06 0"/>
<feBlend mode="normal" in2="BackgroundImageFix" result="effect1_dropShadow_2004_642"/>
<feColorMatrix in="SourceAlpha" type="matrix" values="0 0 0 0 0 0 0 0 0 0 0 0 0 0 0 0 0 0 127 0" result="hardAlpha"/>
<feOffset dx="1" dy="4"/>
<feGaussianBlur stdDeviation="2"/>
<feColorMatrix type="matrix" values="0 0 0 0 0 0 0 0 0 0 0 0 0 0 0 0 0 0 0.05 0"/>
<feBlend mode="normal" in2="effect1_dropShadow_2004_642" result="effect2_dropShadow_2004_642"/>
<feColorMatrix in="SourceAlpha" type="matrix" values="0 0 0 0 0 0 0 0 0 0 0 0 0 0 0 0 0 0 127 0" result="hardAlpha"/>
<feOffset dx="2" dy="8"/>
<feGaussianBlur stdDeviation="2.5"/>
<feColorMatrix type="matrix" values="0 0 0 0 0 0 0 0 0 0 0 0 0 0 0 0 0 0 0.03 0"/>
<feBlend mode="normal" in2="effect2_dropShadow_2004_642" result="effect3_dropShadow_2004_642"/>
<feColorMatrix in="SourceAlpha" type="matrix" values="0 0 0 0 0 0 0 0 0 0 0 0 0 0 0 0 0 0 127 0" result="hardAlpha"/>
<feOffset dx="4" dy="14"/>
<feGaussianBlur stdDeviation="3"/>
<feColorMatrix type="matrix" values="0 0 0 0 0 0 0 0 0 0 0 0 0 0 0 0 0 0 0.01 0"/>
<feBlend mode="normal" in2="effect3_dropShadow_2004_642" result="effect4_dropShadow_2004_642"/>
<feBlend mode="normal" in="SourceGraphic" in2="effect4_dropShadow_2004_642" result="shape"/>
</filter>
<linearGradient id="paint0_linear_2004_642" x1="33.7911" y1="22.0903" x2="36.8308" y2="27.3552" gradientUnits="userSpaceOnUse">
<stop stop-color="white" stop-opacity="0"/>
<stop offset="1" stop-color="white"/>
</linearGradient>
<linearGradient id="paint1_linear_2004_642" x1="20.4014" y1="14.8062" x2="26.135" y2="24.737" gradientUnits="userSpaceOnUse">
<stop stop-color="white" stop-opacity="0"/>
<stop offset="1" stop-color="white"/>
</linearGradient>
<linearGradient id="paint2_linear_2004_642" x1="20.4014" y1="14.8062" x2="26.135" y2="24.737" gradientUnits="userSpaceOnUse">
<stop stop-color="white" stop-opacity="0"/>
<stop offset="1" stop-color="white"/>
</linearGradient>
<linearGradient id="paint3_linear_2004_642" x1="32.7328" y1="10.2877" x2="18.8103" y2="39.3908" gradientUnits="userSpaceOnUse">
<stop stop-color="white"/>
<stop offset="1" stop-color="#DA616C"/>
</linearGradient>
<linearGradient id="paint4_linear_2004_642" x1="19.4607" y1="24.216" x2="26.4843" y2="27.8536" gradientUnits="userSpaceOnUse">
<stop stop-color="#D9D9D9" stop-opacity="0.37"/>
<stop offset="0.154167" stop-color="#DEA5AB" stop-opacity="0.713219"/>
<stop offset="1" stop-color="#E27A84"/>
</linearGradient>
<linearGradient id="paint5_linear_2004_642" x1="4.88929" y1="0" x2="4.88929" y2="9.01086" gradientUnits="userSpaceOnUse">
<stop stop-color="#F48C94"/>
<stop offset="0.945833" stop-color="#B56C75"/>
</linearGradient>
<linearGradient id="paint6_linear_2004_642" x1="25.7921" y1="17.1798" x2="25.9851" y2="19.4287" gradientUnits="userSpaceOnUse">
<stop stop-color="#F5B7BE"/>
<stop offset="1" stop-color="#EE9CA5" stop-opacity="0"/>
</linearGradient>
<linearGradient id="paint7_linear_2004_642" x1="24.2476" y1="14.9505" x2="31.3633" y2="27.2754" gradientUnits="userSpaceOnUse">
<stop stop-color="#F1B7AD"/>
<stop offset="1" stop-color="#F2B9AE"/>
</linearGradient>
<linearGradient id="paint8_linear_2004_642" x1="38.7608" y1="15.3199" x2="30.4944" y2="20.7028" gradientUnits="userSpaceOnUse">
<stop offset="0.0104167" stop-color="white" stop-opacity="0"/>
<stop offset="0.239583" stop-color="white"/>
<stop offset="0.817708" stop-color="white"/>
<stop offset="1" stop-color="white" stop-opacity="0"/>
</linearGradient>
<linearGradient id="paint9_linear_2004_642" x1="40.2915" y1="18.5738" x2="23.3394" y2="32.8105" gradientUnits="userSpaceOnUse">
<stop offset="0.0104167" stop-color="white" stop-opacity="0"/>
<stop offset="0.239583" stop-color="white"/>
<stop offset="0.817708" stop-color="white"/>
<stop offset="1" stop-color="white" stop-opacity="0"/>
</linearGradient>
<linearGradient id="paint10_linear_2004_642" x1="24.5895" y1="12.7426" x2="29.6326" y2="21.0657" gradientUnits="userSpaceOnUse">
<stop offset="0.0104167" stop-color="white" stop-opacity="0"/>
<stop offset="0.239583" stop-color="white"/>
<stop offset="0.817708" stop-color="white"/>
<stop offset="1" stop-color="white" stop-opacity="0"/>
</linearGradient>
<linearGradient id="paint11_linear_2004_642" x1="24.5895" y1="12.7426" x2="29.6326" y2="21.0657" gradientUnits="userSpaceOnUse">
<stop offset="0.0104167" stop-color="white" stop-opacity="0"/>
<stop offset="0.239583" stop-color="white"/>
<stop offset="0.817708" stop-color="white"/>
<stop offset="1" stop-color="white" stop-opacity="0"/>
</linearGradient>
<linearGradient id="paint12_linear_2004_642" x1="24.5895" y1="12.7426" x2="29.6326" y2="21.0657" gradientUnits="userSpaceOnUse">
<stop offset="0.0104167" stop-color="white" stop-opacity="0"/>
<stop offset="0.239583" stop-color="white"/>
<stop offset="0.817708" stop-color="white"/>
<stop offset="1" stop-color="white" stop-opacity="0"/>
</linearGradient>
<linearGradient id="paint13_linear_2004_642" x1="29.3847" y1="16.0039" x2="26.6029" y2="24.0902" gradientUnits="userSpaceOnUse">
<stop offset="0.0104167" stop-color="white" stop-opacity="0"/>
<stop offset="0.279167" stop-color="white"/>
<stop offset="0.817708" stop-color="white"/>
<stop offset="1" stop-color="white" stop-opacity="0"/>
</linearGradient>
<linearGradient id="paint14_linear_2004_642" x1="23.4683" y1="11.2624" x2="22.7011" y2="24.5022" gradientUnits="userSpaceOnUse">
<stop offset="0.0187499" stop-color="white" stop-opacity="0.07"/>
<stop offset="0.560417" stop-color="white"/>
<stop offset="1" stop-color="white" stop-opacity="0"/>
</linearGradient>
<linearGradient id="paint15_linear_2004_642" x1="21.5354" y1="21.7112" x2="16.8735" y2="39.776" gradientUnits="userSpaceOnUse">
<stop offset="0.0187499" stop-color="white" stop-opacity="0.07"/>
<stop offset="0.560417" stop-color="white"/>
<stop offset="1" stop-color="white" stop-opacity="0"/>
</linearGradient>
<linearGradient id="paint16_linear_2004_642" x1="44.5387" y1="19.9662" x2="47.383" y2="32.2961" gradientUnits="userSpaceOnUse">
<stop offset="0.0187499" stop-color="white" stop-opacity="0.07"/>
<stop offset="0.560417" stop-color="white"/>
<stop offset="1" stop-color="white" stop-opacity="0"/>
</linearGradient>
<linearGradient id="paint17_linear_2004_642" x1="24.5349" y1="17.5383" x2="22.1352" y2="24.3613" gradientUnits="userSpaceOnUse">
<stop offset="0.0187499" stop-color="white" stop-opacity="0.07"/>
<stop offset="0.560417" stop-color="white"/>
<stop offset="1" stop-color="white" stop-opacity="0"/>
</linearGradient>
</defs>
</svg>
