<svg width="196" height="232" viewBox="0 0 196 232" fill="none" xmlns="http://www.w3.org/2000/svg">
<path d="M100.816 305.447C124.644 287.172 115.422 262.333 107.833 252.198C97.5919 246.287 72.9126 239.127 56.125 257.775C39.3374 276.423 42.7362 319.104 46.5341 338.114C52.6436 331.371 71.0309 328.292 100.816 305.447Z" fill="url(#paint0_linear_2035_199)"/>
<path d="M62.6481 234.636C92.5075 237.827 102.954 213.477 104.444 200.903C101.101 189.561 88.1621 167.36 63.1455 169.292C38.1288 171.225 11.1635 204.484 0.80789 220.872C9.88222 220.2 25.324 230.647 62.6481 234.636Z" fill="url(#paint1_linear_2035_199)"/>
<path d="M59.5191 208.061C54.5247 212.698 43.4774 222.391 39.2435 224.075" stroke="white"/>
<path d="M103.466 200.776C71.5308 207.776 36.611 207.842 4.01078 219.427" stroke="white"/>
<path d="M88.1195 203.424C83.4231 210.592 72.527 225.662 66.5144 228.607" stroke="white"/>
<path d="M94.2578 202.365C93.545 200.402 89.5338 186.792 67.5551 180.155" stroke="white"/>
<path d="M68.8599 205.555C66.6488 202.461 54.5298 194.321 41.8065 192.643" stroke="white"/>
<path d="M216.441 64.1673C221.086 94.7291 195.21 106.563 181.691 108.66C169.308 105.732 144.812 93.422 145.895 67.6102C146.977 41.7984 181.812 12.5772 199.094 1.19314C198.733 10.5546 210.634 25.965 216.441 64.1673Z" fill="url(#paint2_linear_2035_199)"/>
<path d="M187.615 62.143C192.421 56.7991 202.446 45.004 204.095 40.5746" stroke="white"/>
<path d="M181.513 107.66C187.79 74.5058 186.459 38.5941 197.661 4.55094" stroke="white"/>
<path d="M183.756 91.761C191.308 86.6099 207.145 74.7292 210.084 68.4142" stroke="white"/>
<path d="M182.859 98.1204C180.71 97.4754 165.85 93.9613 157.801 71.6579" stroke="white"/>
<path d="M185.283 71.8596C181.852 69.7248 172.575 57.6277 170.252 44.6194" stroke="white"/>
<path d="M98.9204 249.304C97.381 240.389 96.6671 220.759 106.127 213.559C117.952 204.558 125.745 206.376 131.769 200.798" stroke="url(#paint3_linear_2035_199)" stroke-width="2"/>
<path d="M157.988 251.206C164.32 243.869 175.167 227.063 167.896 218.538C158.808 207.881 147.162 209.94 142.811 212.387" stroke="url(#paint4_linear_2035_199)" stroke-width="2"/>
<path d="M157.988 251.206C164.32 243.869 175.167 227.063 167.896 218.538C158.808 207.881 147.162 209.94 142.811 212.387" stroke="url(#paint5_linear_2035_199)" stroke-width="2"/>
<path d="M165.838 259.246C157.481 259.54 147.041 267.694 142.866 271.734C133.028 280.088 123.85 273.804 120.491 269.618C108.799 266.572 85.1093 253.64 83.8874 226.278C82.6655 198.917 112.335 174.795 127.322 166.154C141.447 158.896 155.383 161.1 160.586 163.11C173.89 156.484 184.647 163.53 186.385 167.577C187.775 170.814 192.521 174.281 194.72 175.61C201.396 182.802 198.316 196.784 195.941 202.876C200.858 209.037 203.44 225.756 200.625 236.799C197.81 247.842 176.283 258.877 165.838 259.246Z" fill="url(#paint6_linear_2035_199)"/>
<path d="M137.43 155.499C171.032 152.212 188.449 171.938 187.728 181.679C188.084 185.184 188.364 198.039 186.633 221.417C184.47 250.639 97.9832 279.708 87.1572 238.442C76.3312 197.176 95.4284 159.608 137.43 155.499Z" fill="#E57881"/>
<path fill-rule="evenodd" clip-rule="evenodd" d="M196.353 203.424C191.484 198.174 183.941 192.591 172.974 189.28C169.806 188.282 161.464 184.828 153.44 178.992C144.264 176.474 121.118 178.674 101.942 207.628C96.5776 215.568 87.7096 235.661 94.5545 253.214C88.7712 246.504 84.3942 237.634 83.8871 226.278C82.6652 198.917 112.334 174.795 127.322 166.154C141.447 158.896 155.383 161.1 160.585 163.11C173.89 156.484 184.646 163.53 186.384 167.577C187.775 170.814 192.521 174.281 194.72 175.61C201.395 182.802 198.315 196.784 195.941 202.876C196.08 203.05 196.217 203.233 196.353 203.424Z" fill="#ECABA3"/>
<path d="M161.128 195.887C161.163 199.716 162.744 213.257 163.531 219.549C160.834 216.95 150.62 216.119 149.408 216.373C148.195 216.628 126.599 220.006 125.635 220.975L158.142 188.267C159.123 189.212 161.093 192.059 161.128 195.887Z" fill="url(#paint7_linear_2035_199)"/>
<ellipse cx="16.3962" cy="14.9812" rx="16.3962" ry="14.9812" transform="matrix(0.704917 -0.70929 -0.72004 -0.693933 149.306 258.493)" fill="url(#paint8_linear_2035_199)"/>
<path d="M149.124 236.552C152.914 235.841 155.352 232.425 154.703 229.01C154.054 225.595 150.53 223.299 146.741 224.01C142.951 224.721 140.514 228.136 141.162 231.551C141.811 234.966 145.334 237.264 149.124 236.552Z" fill="#EA8994" stroke="url(#paint9_linear_2035_199)" stroke-width="2"/>
<path d="M137.714 239.731C137.192 246.438 143.076 250.434 146.084 251.593C143.981 251.938 138.743 251.349 134.614 246.231C130.485 241.113 129.588 228.106 130.784 225.937C131.979 223.769 138.034 221.54 146.286 220.481C158.12 218.962 164.336 227.915 164.336 227.915C167.282 231.229 166.617 238.177 165.417 239.867C164.458 241.219 163.885 240.604 163.719 240.128C165.641 237.711 163.408 232.713 161.928 230.338C160.449 227.963 154.109 225.649 149.981 225.939C145.852 226.23 138.366 231.348 137.714 239.731Z" fill="url(#paint10_linear_2035_199)"/>
<path d="M117.921 254.334C116.579 256.457 112.829 255.594 110.868 253.704C108.907 251.814 103.513 246.616 102.905 233.222C102.208 217.882 110.154 210.957 114.594 209.386C119.197 207.814 129.753 203.503 135.153 198.842C140.554 194.18 151.626 193.214 156.487 193.313C157.137 193.465 158.006 194.682 156.29 198.341C154.574 202 139.963 211.067 132.872 215.143C150.649 211.605 153.933 213.175 159.685 215.925L159.853 216.005C164.54 218.245 167.248 227.401 166.792 230.757C166.276 227.413 162.584 224.001 158.444 221.288C148.885 215.022 134.641 222.539 129.059 223.326C123.477 224.113 116.928 225.391 112.142 233.586C108.314 240.143 112.252 245.55 114.699 247.434C116.332 248.85 119.262 252.212 117.921 254.334Z" fill="#F2B9AE"/>
<path d="M193.614 225.299C197.145 238.167 176.868 254.223 156.673 251.362C186.36 229.218 171.502 198.77 162.251 196.97C154.851 195.53 142.865 185.085 137.796 180.043C140.393 180.489 145.826 181.14 146.789 180.171C165.014 180.185 188.838 207.889 193.614 225.299Z" fill="#F2B9AE"/>
<path d="M110.383 253.71C106.057 250.174 98.2576 240.507 101.662 230.127C105.918 217.151 103.514 220.053 110.239 211.355" stroke="url(#paint11_linear_2035_199)"/>
<path d="M104.21 243.017C99.74 232.543 107.319 210.912 124.73 201.603C142.141 192.294 143.612 193.711 153.09 193.833" stroke="url(#paint12_linear_2035_199)"/>
<path d="M141.041 231.553C147.302 225.254 151.916 224.957 156.548 226.575C161.18 228.193 170.469 234.3 162.309 245.409" stroke="url(#paint13_linear_2035_199)"/>
<path d="M141.041 231.553C147.302 225.254 151.916 224.957 156.548 226.575C161.18 228.193 170.469 234.3 162.309 245.409" stroke="url(#paint14_linear_2035_199)"/>
<path d="M141.041 231.553C147.302 225.254 151.916 224.957 156.548 226.575C161.18 228.193 170.469 234.3 162.309 245.409" stroke="url(#paint15_linear_2035_199)"/>
<path d="M138.23 243.075C137.617 229.203 146.112 223.633 154.604 226.599C163.096 229.565 165.89 238.425 157.729 249.534" stroke="url(#paint16_linear_2035_199)"/>
<path d="M158.714 250.958C160.903 251.17 185.428 249.191 191.864 235.471C198.3 221.751 185.735 203.002 170.321 191.466" stroke="url(#paint17_linear_2035_199)"/>
<path d="M172.786 248.391C202.801 235.576 183.642 207.137 174.244 195.247C166.377 185.294 156.47 191.399 136.927 180.154" stroke="white"/>
<path d="M196.422 202.391C200.033 189.743 200.009 164.106 171.031 162.741C134.808 161.036 122.943 165.729 113.548 174.7" stroke="url(#paint18_linear_2035_199)"/>
<path d="M92.1213 249.867C89.893 245.348 73.7168 230.233 87.3239 203.501C98.2095 182.116 123.2 167.241 134.335 162.477" stroke="url(#paint19_linear_2035_199)"/>
<path d="M165.256 222.161C165.134 217.615 159.307 209.407 136.983 212.938M167.029 230.036C168.649 221.161 155.831 201.218 119.104 224.167" stroke="url(#paint20_linear_2035_199)"/>
<path d="M222.781 99.4624C215.292 98.9806 199.041 100.126 193.938 108.564C187.56 119.111 189.748 125.377 185.68 130.838" stroke="url(#paint21_linear_2035_199)" stroke-width="2"/>
<path d="M229.568 148.007C224.076 153.877 211.175 164.307 203.502 159.064C193.911 152.511 194.58 142.725 196.213 138.92" stroke="url(#paint22_linear_2035_199)" stroke-width="2"/>
<path d="M229.568 148.007C224.076 153.877 211.175 164.307 203.502 159.064C193.911 152.511 194.58 142.725 196.213 138.92" stroke="url(#paint23_linear_2035_199)" stroke-width="2"/>
<path d="M236.891 153.77C236.396 146.852 242.198 137.522 245.161 133.722C251.181 124.87 245.188 117.857 241.438 115.456C237.893 106.083 225.135 87.6894 202.462 89.0994C179.79 90.5093 162.518 117.108 156.716 130.232C151.979 142.522 155.028 153.82 157.145 157.933C152.857 169.491 159.618 177.739 163.109 178.814C165.901 179.675 169.18 183.283 170.47 184.979C176.991 189.848 188.25 186.073 193.064 183.577C198.579 187.087 212.595 187.739 221.454 184.442C230.312 181.144 237.51 162.417 236.891 153.77Z" fill="url(#paint24_linear_2035_199)"/>
<path d="M148.823 139.51C149.081 167.511 166.888 180.132 174.857 178.677C177.78 178.66 188.406 177.755 207.532 174.262C231.44 169.896 247.771 96.0032 212.783 90.7214C177.795 85.4395 148.501 104.508 148.823 139.51Z" fill="#E57881"/>
<path fill-rule="evenodd" clip-rule="evenodd" d="M193.552 183.867C188.792 180.316 183.522 174.589 179.822 165.838C178.72 163.313 175.134 156.738 169.612 150.637C166.724 143.292 166.494 124.009 188.677 105.637C194.752 100.511 210.538 91.4226 225.619 95.5165C219.574 91.34 211.872 88.514 202.462 89.0992C179.79 90.5092 162.518 117.108 156.716 130.232C151.979 142.522 155.028 153.82 157.145 157.933C152.857 169.49 159.618 177.739 163.109 178.814C165.901 179.675 169.18 183.282 170.47 184.979C176.991 189.848 188.25 186.073 193.064 183.576C193.22 183.676 193.383 183.773 193.552 183.867Z" fill="#ECABA3"/>
<path d="M184.225 155.484C187.385 155.175 198.692 155.283 203.951 155.375C201.569 153.381 199.981 145.031 200.084 144.009C200.186 142.986 201.064 124.877 201.778 123.997L177.676 153.695C178.542 154.421 181.065 155.794 184.225 155.484Z" fill="url(#paint25_linear_2035_199)"/>
<path d="M218.313 132.3C223.798 131.277 227.613 135.777 228.835 138.155C228.934 136.39 227.985 132.123 223.399 129.17C218.814 126.216 208.008 126.627 206.325 127.804C204.642 128.981 203.339 134.171 203.195 141.071C202.988 150.964 210.921 155.299 210.921 155.299C213.914 157.436 219.585 156.274 220.873 155.135C221.903 154.224 221.345 153.806 220.937 153.711C219.114 155.51 214.795 154.11 212.706 153.099C210.617 152.089 208.148 147.066 208.023 143.635C207.897 140.205 211.457 133.579 218.313 132.3Z" fill="url(#paint26_linear_2035_199)"/>
<path d="M228.608 114.688C230.24 113.394 229.197 110.377 227.464 108.927C225.732 107.477 220.969 103.488 209.87 104.17C197.157 104.951 192.148 112.115 191.246 115.916C190.355 119.851 187.733 128.937 184.366 133.802C180.999 138.668 181.18 147.885 181.692 151.885C181.874 152.407 182.955 153.016 185.821 151.278C188.686 149.539 194.873 136.689 197.608 130.481C196.248 145.599 197.877 148.072 200.703 152.656C202.964 156.322 210.754 157.747 213.481 157.075C210.678 156.944 207.539 154.201 204.935 151.026C198.923 143.697 203.864 131.286 204.02 126.613C204.176 121.94 204.65 116.426 210.986 111.755C216.055 108.019 220.863 110.788 222.633 112.64C223.944 113.862 226.976 115.981 228.608 114.688Z" fill="#F2B9AE"/>
<path d="M211.35 179.677C222.275 181.451 233.724 163.311 229.58 146.909C213.941 173.348 187.519 163.785 185.217 156.315C183.376 150.339 173.703 141.377 169.096 137.643C169.694 139.745 170.711 144.168 169.996 145.048C171.618 160.077 196.57 177.276 211.35 179.677Z" fill="#F2B9AE"/>
<path d="M227.426 108.526C224.128 105.271 215.466 99.6933 207.207 103.418C196.882 108.074 199.063 105.836 192.484 112.15" stroke="url(#paint27_linear_2035_199)"/>
<path d="M218.063 104.38C209.03 101.62 191.861 109.781 185.722 124.962C179.584 140.143 180.883 141.231 181.821 149.037" stroke="url(#paint28_linear_2035_199)"/>
<path d="M229.427 148.627C229.795 150.414 230.331 170.814 219.585 177.334C208.839 183.854 192.266 175.149 181.391 163.456" stroke="url(#paint29_linear_2035_199)"/>
<path d="M228.553 160.458C220.637 186.344 195.49 173.056 184.855 166.357C175.951 160.749 180.111 152.039 169.111 136.916" stroke="white"/>
<path d="M192.707 184.016C182.595 188.111 161.45 190.357 157.764 166.579C153.157 136.857 155.98 126.658 162.547 118.118" stroke="url(#paint30_linear_2035_199)"/>
<path d="M222.644 93.8059C218.72 92.3676 204.825 80.3628 183.983 93.9463C167.309 104.813 157.25 126.737 154.305 136.341" stroke="url(#paint31_linear_2035_199)"/>
<path d="M206.256 156.567C202.497 156.868 195.213 152.788 196.153 134.066M212.907 157.333C205.732 159.453 188.153 150.644 203.833 118.328" stroke="url(#paint32_linear_2035_199)"/>
<defs>
<linearGradient id="paint0_linear_2035_199" x1="90.0903" y1="313.35" x2="51.3746" y2="260.205" gradientUnits="userSpaceOnUse">
<stop stop-color="#ACA97D"/>
<stop offset="1" stop-color="#7D7A5F"/>
</linearGradient>
<linearGradient id="paint1_linear_2035_199" x1="49.4306" y1="232.965" x2="58.029" y2="167.778" gradientUnits="userSpaceOnUse">
<stop stop-color="#ACA97D"/>
<stop offset="1" stop-color="#7D7A5F"/>
</linearGradient>
<linearGradient id="paint2_linear_2035_199" x1="179.721" y1="109.016" x2="196.18" y2="3.03661" gradientUnits="userSpaceOnUse">
<stop stop-color="#828B3A"/>
<stop offset="1" stop-color="#B5C37F"/>
</linearGradient>
<linearGradient id="paint3_linear_2035_199" x1="119.267" y1="228.831" x2="104.929" y2="214.582" gradientUnits="userSpaceOnUse">
<stop stop-color="white" stop-opacity="0"/>
<stop offset="1" stop-color="white"/>
</linearGradient>
<linearGradient id="paint4_linear_2035_199" x1="168.75" y1="240.377" x2="141.705" y2="213.499" gradientUnits="userSpaceOnUse">
<stop stop-color="white" stop-opacity="0"/>
<stop offset="1" stop-color="white"/>
</linearGradient>
<linearGradient id="paint5_linear_2035_199" x1="168.75" y1="240.377" x2="141.705" y2="213.499" gradientUnits="userSpaceOnUse">
<stop stop-color="white" stop-opacity="0"/>
<stop offset="1" stop-color="white"/>
</linearGradient>
<linearGradient id="paint6_linear_2035_199" x1="132.85" y1="265.876" x2="151.849" y2="159.69" gradientUnits="userSpaceOnUse">
<stop stop-color="#ED929A"/>
<stop offset="1" stop-color="#DA616C"/>
</linearGradient>
<linearGradient id="paint7_linear_2035_199" x1="163.68" y1="209.257" x2="137.926" y2="203.587" gradientUnits="userSpaceOnUse">
<stop stop-color="#D9D9D9" stop-opacity="0.37"/>
<stop offset="0.154167" stop-color="#DEA5AB" stop-opacity="0.713219"/>
<stop offset="1" stop-color="#E27A84"/>
</linearGradient>
<linearGradient id="paint8_linear_2035_199" x1="16.3962" y1="0" x2="16.3962" y2="29.9625" gradientUnits="userSpaceOnUse">
<stop stop-color="#F48C94"/>
<stop offset="0.945833" stop-color="#B56C75"/>
</linearGradient>
<linearGradient id="paint9_linear_2035_199" x1="149.31" y1="237.528" x2="146.705" y2="230.478" gradientUnits="userSpaceOnUse">
<stop stop-color="#F5B7BE"/>
<stop offset="1" stop-color="#EE9CA5" stop-opacity="0"/>
</linearGradient>
<linearGradient id="paint10_linear_2035_199" x1="156.215" y1="243.331" x2="122.65" y2="209.974" gradientUnits="userSpaceOnUse">
<stop stop-color="#F1B7AD"/>
<stop offset="1" stop-color="#F2B9AE"/>
</linearGradient>
<linearGradient id="paint11_linear_2035_199" x1="109.063" y1="255.037" x2="131.069" y2="230.34" gradientUnits="userSpaceOnUse">
<stop offset="0.0104167" stop-color="white" stop-opacity="0"/>
<stop offset="0.239583" stop-color="white"/>
<stop offset="0.817708" stop-color="white"/>
<stop offset="1" stop-color="white" stop-opacity="0"/>
</linearGradient>
<linearGradient id="paint12_linear_2035_199" x1="101.32" y1="245.925" x2="143.557" y2="184.905" gradientUnits="userSpaceOnUse">
<stop offset="0.0104167" stop-color="white" stop-opacity="0"/>
<stop offset="0.239583" stop-color="white"/>
<stop offset="0.817708" stop-color="white"/>
<stop offset="1" stop-color="white" stop-opacity="0"/>
</linearGradient>
<linearGradient id="paint13_linear_2035_199" x1="157.011" y1="250.739" x2="133.585" y2="228.415" gradientUnits="userSpaceOnUse">
<stop offset="0.0104167" stop-color="white" stop-opacity="0"/>
<stop offset="0.239583" stop-color="white"/>
<stop offset="0.817708" stop-color="white"/>
<stop offset="1" stop-color="white" stop-opacity="0"/>
</linearGradient>
<linearGradient id="paint14_linear_2035_199" x1="157.011" y1="250.739" x2="133.585" y2="228.415" gradientUnits="userSpaceOnUse">
<stop offset="0.0104167" stop-color="white" stop-opacity="0"/>
<stop offset="0.239583" stop-color="white"/>
<stop offset="0.817708" stop-color="white"/>
<stop offset="1" stop-color="white" stop-opacity="0"/>
</linearGradient>
<linearGradient id="paint15_linear_2035_199" x1="157.011" y1="250.739" x2="133.585" y2="228.415" gradientUnits="userSpaceOnUse">
<stop offset="0.0104167" stop-color="white" stop-opacity="0"/>
<stop offset="0.239583" stop-color="white"/>
<stop offset="0.817708" stop-color="white"/>
<stop offset="1" stop-color="white" stop-opacity="0"/>
</linearGradient>
<linearGradient id="paint16_linear_2035_199" x1="138.729" y1="244.504" x2="140.499" y2="215.994" gradientUnits="userSpaceOnUse">
<stop offset="0.0104167" stop-color="white" stop-opacity="0"/>
<stop offset="0.279167" stop-color="white"/>
<stop offset="0.817708" stop-color="white"/>
<stop offset="1" stop-color="white" stop-opacity="0"/>
</linearGradient>
<linearGradient id="paint17_linear_2035_199" x1="161.905" y1="254.508" x2="152.647" y2="211.287" gradientUnits="userSpaceOnUse">
<stop offset="0.0187499" stop-color="white" stop-opacity="0.07"/>
<stop offset="0.560417" stop-color="white"/>
<stop offset="1" stop-color="white" stop-opacity="0"/>
</linearGradient>
<linearGradient id="paint18_linear_2035_199" x1="159.142" y1="219.163" x2="158.095" y2="156.892" gradientUnits="userSpaceOnUse">
<stop offset="0.0187499" stop-color="white" stop-opacity="0.07"/>
<stop offset="0.560417" stop-color="white"/>
<stop offset="1" stop-color="white" stop-opacity="0"/>
</linearGradient>
<linearGradient id="paint19_linear_2035_199" x1="86.4149" y1="245.217" x2="66.4526" y2="208.151" gradientUnits="userSpaceOnUse">
<stop offset="0.0187499" stop-color="white" stop-opacity="0.07"/>
<stop offset="0.560417" stop-color="white"/>
<stop offset="1" stop-color="white" stop-opacity="0"/>
</linearGradient>
<linearGradient id="paint20_linear_2035_199" x1="153.057" y1="235.257" x2="154.719" y2="211.153" gradientUnits="userSpaceOnUse">
<stop offset="0.0187499" stop-color="white" stop-opacity="0.07"/>
<stop offset="0.560417" stop-color="white"/>
<stop offset="1" stop-color="white" stop-opacity="0"/>
</linearGradient>
<linearGradient id="paint21_linear_2035_199" x1="207.694" y1="118.051" x2="194.676" y2="107.486" gradientUnits="userSpaceOnUse">
<stop stop-color="white" stop-opacity="0"/>
<stop offset="1" stop-color="white"/>
</linearGradient>
<linearGradient id="paint22_linear_2035_199" x1="221.588" y1="157.839" x2="197.033" y2="137.91" gradientUnits="userSpaceOnUse">
<stop stop-color="white" stop-opacity="0"/>
<stop offset="1" stop-color="white"/>
</linearGradient>
<linearGradient id="paint23_linear_2035_199" x1="221.588" y1="157.839" x2="197.033" y2="137.91" gradientUnits="userSpaceOnUse">
<stop stop-color="white" stop-opacity="0"/>
<stop offset="1" stop-color="white"/>
</linearGradient>
<linearGradient id="paint24_linear_2035_199" x1="239.444" y1="125.979" x2="153.553" y2="151.03" gradientUnits="userSpaceOnUse">
<stop stop-color="#ED929A"/>
<stop offset="1" stop-color="#DA616C"/>
</linearGradient>
<linearGradient id="paint25_linear_2035_199" x1="195.476" y1="156.408" x2="188.525" y2="135.67" gradientUnits="userSpaceOnUse">
<stop stop-color="#D9D9D9" stop-opacity="0.37"/>
<stop offset="0.154167" stop-color="#DEA5AB" stop-opacity="0.713219"/>
<stop offset="1" stop-color="#E27A84"/>
</linearGradient>
<linearGradient id="paint26_linear_2035_199" x1="222.917" y1="147.24" x2="192.441" y2="122.507" gradientUnits="userSpaceOnUse">
<stop stop-color="#F1B7AD"/>
<stop offset="1" stop-color="#F2B9AE"/>
</linearGradient>
<linearGradient id="paint27_linear_2035_199" x1="228.404" y1="107.321" x2="209.981" y2="127.65" gradientUnits="userSpaceOnUse">
<stop offset="0.0104167" stop-color="white" stop-opacity="0"/>
<stop offset="0.239583" stop-color="white"/>
<stop offset="0.817708" stop-color="white"/>
<stop offset="1" stop-color="white" stop-opacity="0"/>
</linearGradient>
<linearGradient id="paint28_linear_2035_199" x1="220.205" y1="101.74" x2="173.615" y2="141.964" gradientUnits="userSpaceOnUse">
<stop offset="0.0104167" stop-color="white" stop-opacity="0"/>
<stop offset="0.239583" stop-color="white"/>
<stop offset="0.817708" stop-color="white"/>
<stop offset="1" stop-color="white" stop-opacity="0"/>
</linearGradient>
<linearGradient id="paint29_linear_2035_199" x1="232.637" y1="150.945" x2="196.175" y2="147.129" gradientUnits="userSpaceOnUse">
<stop offset="0.0187499" stop-color="white" stop-opacity="0.07"/>
<stop offset="0.560417" stop-color="white"/>
<stop offset="1" stop-color="white" stop-opacity="0"/>
</linearGradient>
<linearGradient id="paint30_linear_2035_199" x1="203.244" y1="151.789" x2="151.798" y2="156.429" gradientUnits="userSpaceOnUse">
<stop offset="0.0187499" stop-color="white" stop-opacity="0.07"/>
<stop offset="0.560417" stop-color="white"/>
<stop offset="1" stop-color="white" stop-opacity="0"/>
</linearGradient>
<linearGradient id="paint31_linear_2035_199" x1="218.305" y1="89.5107" x2="185.973" y2="76.3233" gradientUnits="userSpaceOnUse">
<stop offset="0.0187499" stop-color="white" stop-opacity="0.07"/>
<stop offset="0.560417" stop-color="white"/>
<stop offset="1" stop-color="white" stop-opacity="0"/>
</linearGradient>
<linearGradient id="paint32_linear_2035_199" x1="215.979" y1="145.35" x2="196.247" y2="148.85" gradientUnits="userSpaceOnUse">
<stop offset="0.0187499" stop-color="white" stop-opacity="0.07"/>
<stop offset="0.560417" stop-color="white"/>
<stop offset="1" stop-color="white" stop-opacity="0"/>
</linearGradient>
</defs>
</svg>
