<svg width="252" height="208" viewBox="0 0 252 208" fill="none" xmlns="http://www.w3.org/2000/svg">
<path d="M17.1538 28.5764C60.1036 34.3407 65.8548 73.8122 63.3616 92.8274C54.5529 108.339 28.3587 136.461 -5.94774 124.856C-40.2542 113.252 -65.8791 54.8908 -74.4033 27.161C-61.9486 31.3273 -36.5336 21.3709 17.1538 28.5764Z" fill="url(#paint0_linear_2035_291)"/>
<path d="M3.09652 66.5692C-2.20464 58.0011 -14.135 39.875 -19.4469 35.9152" stroke="white"/>
<path d="M61.9455 92.6748C19.8018 71.1937 -29.0439 58.8667 -70.4482 30.4102" stroke="white"/>
<path d="M41.4333 83.4057C37.471 71.2194 27.7107 45.2375 20.3686 38.8009" stroke="white"/>
<path d="M49.6383 87.1135C47.9258 89.7508 37.3553 108.365 4.1794 110.428" stroke="white"/>
<path d="M15.255 73.5271C11.0335 77.3046 -8.89116 85.0315 -27.3085 83.0437" stroke="white"/>
<path d="M206.758 129.96C184.725 167.276 146.129 157.205 129.585 147.505C118.728 133.351 103.024 98.2748 127.071 71.194C151.117 44.1132 214.85 43.2341 243.71 46.1796C235.023 56.0292 234.298 83.3153 206.758 129.96Z" fill="url(#paint1_linear_2035_291)"/>
<path d="M177.238 102.22C187.194 100.673 208.535 96.742 214.25 93.391" stroke="white"/>
<path d="M130.278 146.26C166.473 115.806 196.846 75.6144 239.178 48.5574" stroke="white"/>
<path d="M146.803 130.976C159.57 132.071 187.302 133.197 196.089 128.941" stroke="white"/>
<path d="M140.193 137.089C138.43 134.485 125.401 117.501 136.418 86.1398" stroke="white"/>
<path d="M166.094 110.709C164.259 105.35 164.899 83.9894 173.901 67.7995" stroke="white"/>
<path d="M45.1376 250.628C9.48141 211.687 34.9378 170.288 52.1231 154.456C72.4766 146.833 118.937 141.001 141.949 178.651C164.961 216.3 143.331 290.886 129.64 323.473C121.249 309.849 89.7079 299.305 45.1376 250.628Z" fill="url(#paint2_linear_2035_291)"/>
<path d="M53.3278 155.705C75.9529 208.712 111.995 258.395 128.48 317.346" stroke="white"/>
<path d="M65.265 180.396C59.4503 194.886 48.2802 226.804 50.1172 238.558" stroke="white"/>
<path d="M60.4902 170.52C64.1516 169.392 88.5757 160.245 121.208 184.231" stroke="white"/>
<path d="M82.0259 210.083C88.924 209.848 113.59 218.188 129.258 234.434" stroke="white"/>
<path d="M146.146 52.7607C147.95 62.2332 149.076 83.1167 139.146 90.8703C126.733 100.562 118.409 98.7026 112.104 104.697" stroke="url(#paint3_linear_2035_291)" stroke-width="2"/>
<path d="M83.2676 51.3047C76.6678 59.1739 65.4418 77.1628 73.3363 86.1651C83.2044 97.4181 95.5556 95.1155 100.14 92.4696" stroke="url(#paint4_linear_2035_291)" stroke-width="2"/>
<path d="M83.2676 51.3047C76.6678 59.1739 65.4418 77.1628 73.3363 86.1651C83.2044 97.4181 95.5556 95.1155 100.14 92.4696" stroke="url(#paint5_linear_2035_291)" stroke-width="2"/>
<path d="M74.7666 42.825C83.6518 42.4309 94.6062 33.6532 98.9728 29.3136C109.284 20.3289 119.166 26.9279 122.818 31.3505C135.314 34.4797 160.759 48.0146 162.569 77.1207C164.38 106.227 133.265 132.183 117.481 141.522C102.589 149.382 87.7209 147.17 82.1485 145.082C68.1172 152.261 56.5418 144.866 54.6172 140.576C53.0776 137.144 47.9636 133.5 45.5991 132.107C38.3629 124.517 41.3788 109.609 43.7912 103.103C38.4457 96.5936 35.3859 78.8257 38.1749 67.0469C40.9639 55.2681 63.6601 43.3176 74.7666 42.825Z" fill="url(#paint6_linear_2035_291)"/>
<path d="M106.926 152.958C71.2382 156.78 52.3397 135.954 52.9251 125.582C52.4809 121.855 51.9437 108.177 53.3485 83.2819C55.1045 52.1632 146.576 20.3967 158.864 64.2075C171.152 108.018 151.535 148.181 106.926 152.958Z" fill="#FFE5E7"/>
<path fill-rule="evenodd" clip-rule="evenodd" d="M43.3417 102.524C48.6198 108.064 56.7481 113.933 68.4778 117.35C71.8671 118.382 80.807 121.978 89.4524 128.111C99.262 130.703 123.846 128.138 143.707 97.1415C149.266 88.6401 158.326 67.1728 150.716 48.5584C156.994 55.6433 161.817 65.041 162.568 77.1208C164.379 106.227 133.264 132.183 117.48 141.522C102.587 149.382 87.7196 147.17 82.1472 145.082C68.1159 152.261 56.5405 144.866 54.6159 140.576C53.0763 137.144 47.9624 133.5 45.5978 132.107C38.3616 124.517 41.3775 109.609 43.7899 103.103C43.6387 102.919 43.4892 102.726 43.3417 102.524Z" fill="#ECABA3"/>
<path d="M80.959 110.204C80.8504 106.13 78.9149 91.7351 77.9607 85.0468C80.8783 87.7867 91.7603 88.5727 93.0457 88.2904C94.3312 88.0081 117.245 84.2054 118.251 83.1648L84.2777 118.285C83.2167 117.289 81.0677 114.278 80.959 110.204Z" fill="url(#paint7_linear_2035_291)"/>
<ellipse cx="17.3738" cy="16.0098" rx="17.3738" ry="16.0098" transform="matrix(-0.695273 0.718746 0.72896 0.684556 92.3679 43.467)" fill="url(#paint8_linear_2035_291)"/>
<path d="M92.9574 66.7499C88.9109 67.5489 86.352 71.2367 87.1144 74.9055C87.877 78.5745 91.7071 81.0018 95.7538 80.203C99.8006 79.404 102.359 75.7155 101.597 72.0464C100.834 68.3775 97.0041 65.951 92.9574 66.7499Z" fill="#FAE2E5" stroke="url(#paint9_linear_2035_291)" stroke-width="2"/>
<path d="M105.052 63.3221C105.482 56.1796 99.147 51.9843 95.9255 50.7795C98.1563 50.392 103.74 50.9688 108.229 56.3755C112.717 61.7822 113.914 75.6157 112.683 77.9349C111.452 80.2542 105.051 82.6841 96.2914 83.8908C83.7296 85.6212 76.949 76.1527 76.949 76.1527C73.7525 72.6545 74.3309 65.254 75.5756 63.444C76.5714 61.996 77.1921 62.645 77.378 63.1506C75.3783 65.741 77.8469 71.0382 79.4655 73.5512C81.0841 76.0641 87.8717 78.4664 92.2585 78.1176C96.6453 77.7689 104.515 72.2503 105.052 63.3221Z" fill="url(#paint10_linear_2035_291)"/>
<path d="M125.836 47.5909C127.224 45.3193 131.23 46.2016 133.352 48.1942C135.474 50.1868 141.309 55.6666 142.206 69.9142C143.234 86.2323 134.91 93.6785 130.214 95.3925C125.347 97.1103 114.197 101.799 108.538 106.812C102.879 111.824 91.1178 112.959 85.9443 112.9C85.2506 112.745 84.3026 111.458 86.0602 107.548C87.8178 103.638 103.193 93.8483 110.661 89.4423C91.8147 93.3782 88.2909 91.7387 82.1207 88.8679L81.9394 88.7836C76.912 86.4456 73.86 76.7281 74.2819 73.1524C74.8938 76.7059 78.8854 80.3005 83.3407 83.1488C93.6268 89.7248 108.641 81.5879 114.565 80.6967C120.489 79.8055 127.433 78.383 132.371 69.6153C136.322 62.6011 132.032 56.8844 129.393 54.9028C127.629 53.412 124.449 49.8625 125.836 47.5909Z" fill="#F2B9AE"/>
<path d="M45.8479 79.2177C41.852 65.5571 63.1244 48.2761 84.6638 51.1267C53.4927 74.9777 69.8688 107.237 79.7441 109.063C87.6444 110.524 100.592 121.525 106.078 126.842C103.307 126.392 97.5151 125.752 96.5085 126.792C77.1181 126.953 51.2542 97.6995 45.8479 79.2177Z" fill="#F2B9AE"/>
<path d="M133.87 48.1839C138.538 51.9053 147.017 62.1181 143.588 73.1972C139.303 87.0462 141.806 83.9355 134.814 93.2567" stroke="url(#paint11_linear_2035_291)"/>
<path d="M140.637 59.5029C145.588 70.6065 137.928 93.6992 119.578 103.773C101.228 113.847 99.6366 112.353 89.5503 112.314" stroke="url(#paint12_linear_2035_291)"/>
<path d="M101.663 72.056C95.1203 78.82 90.2166 79.1798 85.2586 77.5026C80.3005 75.8255 70.303 69.4158 78.7778 57.5152" stroke="url(#paint13_linear_2035_291)"/>
<path d="M101.663 72.056C95.1203 78.82 90.2166 79.1798 85.2586 77.5026C80.3005 75.8255 70.303 69.4158 78.7778 57.5152" stroke="url(#paint14_linear_2035_291)"/>
<path d="M101.663 72.056C95.1203 78.82 90.2166 79.1798 85.2586 77.5026C80.3005 75.8255 70.303 69.4158 78.7778 57.5152" stroke="url(#paint15_linear_2035_291)"/>
<path d="M104.44 59.7683C105.351 74.525 96.4174 80.5335 87.3276 77.4587C78.2379 74.3839 75.0995 64.9825 83.5743 53.0818" stroke="url(#paint16_linear_2035_291)"/>
<path d="M82.499 51.5766C80.1662 51.3718 54.1105 53.7132 47.5195 68.3759C40.9285 83.0385 54.6458 102.871 71.2607 114.998" stroke="url(#paint17_linear_2035_291)"/>
<path d="M67.578 54.4438C35.8836 68.3703 56.7984 98.4509 67.018 111.013C75.5735 121.53 86.0001 114.938 107.002 126.716" stroke="white"/>
<path d="M43.2871 103.624C39.6819 117.119 40.1854 144.402 71.0412 145.575C109.611 147.042 122.146 141.933 131.974 132.296" stroke="url(#paint18_linear_2035_291)"/>
<path d="M153.37 52.0972C155.825 56.8851 173.317 72.8152 159.339 101.393C148.157 124.256 121.847 140.326 110.09 145.503" stroke="url(#paint19_linear_2035_291)"/>
<path d="M76.0772 82.2847C76.2924 87.1206 82.6439 95.7994 106.329 91.8273M74.044 73.9211C72.4861 83.3807 86.4958 104.481 125.141 79.7053" stroke="url(#paint20_linear_2035_291)"/>
<path d="M-6.51074 124.115C3.12801 123.836 23.9256 126.037 30.0061 137.071C37.6068 150.864 34.4501 158.788 39.3688 165.964" stroke="url(#paint21_linear_2035_291)" stroke-width="2"/>
<path d="M-17.9214 185.967C-11.1986 193.731 4.78202 207.668 14.9226 201.302C27.5983 193.343 27.2838 180.783 25.3986 175.837" stroke="url(#paint22_linear_2035_291)" stroke-width="2"/>
<path d="M-17.9214 185.967C-11.1986 193.731 4.78202 207.668 14.9226 201.302C27.5983 193.343 27.2838 180.783 25.3986 175.837" stroke="url(#paint23_linear_2035_291)" stroke-width="2"/>
<path d="M-27.642 193.015C-26.6218 184.179 -33.5509 171.971 -37.1429 166.972C-44.3785 155.366 -36.2956 146.656 -31.3498 143.752C-26.2782 131.91 -8.87885 108.934 20.146 111.763C49.1708 114.592 69.863 149.43 76.581 166.495C81.9793 182.446 77.437 196.775 74.491 201.945C79.3537 216.937 70.2164 227.193 65.6757 228.413C62.0431 229.389 57.6342 233.86 55.8838 235.974C47.2423 241.915 33.0006 236.572 26.9599 233.159C19.6851 237.404 1.65689 237.607 -9.53047 232.985C-20.7178 228.363 -28.9171 204.059 -27.642 193.015Z" fill="url(#paint24_linear_2035_291)"/>
<path d="M86.1982 178.731C84.311 214.573 60.7517 229.929 50.6029 227.706C46.8527 227.553 33.2628 225.914 8.90587 220.578C-21.5404 213.909 -38.3964 118.557 6.80877 113.373C52.0139 108.19 88.5573 133.928 86.1982 178.731Z" fill="#FFE5E7"/>
<path fill-rule="evenodd" clip-rule="evenodd" d="M26.3161 233.51C32.623 229.178 39.7068 222.083 44.9419 211.044C46.4978 207.861 51.4662 199.605 58.8928 192.042C63.0082 182.768 64.3753 158.088 36.9209 133.562C29.4088 126.725 9.65023 114.375 -9.93552 118.936C-1.94457 113.861 8.09905 110.59 20.1451 111.764C49.1699 114.593 69.8621 149.431 76.5801 166.496C81.9785 182.447 77.4361 196.776 74.4901 201.946C79.3528 216.939 70.2155 227.195 65.6748 228.414C62.0423 229.39 57.6333 233.862 55.8829 235.975C47.2414 241.916 32.9997 236.574 26.9591 233.16C26.7532 233.28 26.5388 233.397 26.3161 233.51Z" fill="#ECABA3"/>
<path d="M39.866 197.587C35.8264 197.049 21.3066 196.676 14.5516 196.558C17.7196 194.111 20.2216 183.492 20.1467 182.178C20.0719 180.864 19.9517 157.637 19.0839 156.478L48.3714 195.593C47.2194 196.482 43.9055 198.126 39.866 197.587Z" fill="url(#paint25_linear_2035_291)"/>
<ellipse cx="17.3738" cy="16.0098" rx="17.3738" ry="16.0098" transform="matrix(0.59937 0.800472 0.791511 -0.611155 -24.2166 175.738)" fill="url(#paint26_linear_2035_291)"/>
<path d="M-1.13484 178.849C-0.98777 182.971 2.24742 186.082 5.99077 185.911C9.73427 185.74 12.7383 182.344 12.5914 178.222C12.4445 174.099 9.20845 170.988 5.46487 171.159C1.72146 171.33 -1.28178 174.727 -1.13484 178.849Z" fill="#FAE2E5" stroke="url(#paint27_linear_2035_291)" stroke-width="2"/>
<path d="M-2.60063 166.364C-9.58456 164.806 -14.7316 170.396 -16.4321 173.386C-16.4608 171.122 -15.0057 165.7 -8.95551 162.126C-2.90527 158.551 10.9428 159.564 13.0375 161.148C15.1321 162.731 16.5161 169.436 16.3181 178.276C16.0341 190.953 5.61003 196.146 5.61003 196.146C1.64912 198.747 -5.56597 197.003 -7.15563 195.487C-8.42737 194.274 -7.68804 193.764 -7.15942 193.661C-4.91892 196.046 0.702718 194.449 3.44059 193.249C6.17847 192.05 9.62688 185.729 9.97836 181.342C10.3298 176.956 6.12929 168.311 -2.60063 166.364Z" fill="url(#paint28_linear_2035_291)"/>
<path d="M-14.8368 143.347C-16.8596 141.616 -15.3531 137.801 -13.0491 136.022C-10.7452 134.243 -4.40921 129.351 9.80024 130.725C26.0748 132.299 32.1064 141.698 33.0541 146.606C33.9781 151.684 36.8389 163.437 40.8906 169.819C44.9422 176.201 44.1974 187.994 43.3186 193.092C43.0555 193.753 41.634 194.485 38.0522 192.129C34.4704 189.774 27.2435 173.04 24.0778 164.968C24.9746 184.2 22.797 187.419 18.9839 193.056L18.8719 193.222C15.7661 197.814 5.68751 199.287 2.22397 198.303C5.82962 198.262 10.0118 194.891 13.5307 190.944C21.6549 181.831 16.0025 165.716 16.0622 159.726C16.1219 153.736 15.8188 146.654 7.94527 140.388C1.64649 135.375 -4.67829 138.704 -7.05333 140.995C-8.805 142.5 -12.814 145.077 -14.8368 143.347Z" fill="#F2B9AE"/>
<path d="M3.70284 227.34C-10.4186 229.118 -24.1068 205.374 -17.876 184.56C0.729109 219.119 35.1771 208.067 38.5469 198.606C41.2427 191.038 54.1572 179.999 60.2775 175.426C59.3936 178.09 57.8427 183.707 58.7105 184.866C55.7935 204.037 22.8083 224.933 3.70284 227.34Z" fill="#F2B9AE"/>
<path d="M-12.9766 135.509C-8.56191 131.49 2.8663 124.739 13.2615 129.881C26.2554 136.309 23.5811 133.344 31.6753 141.726" stroke="url(#paint29_linear_2035_291)"/>
<path d="M-0.727417 130.624C11.0208 127.497 32.6064 138.722 39.6423 158.438C46.6783 178.153 44.9503 179.488 43.3123 189.44" stroke="url(#paint30_linear_2035_291)"/>
<path d="M5.48443 171.095C11.125 178.628 10.7025 183.527 8.26014 188.156C5.81783 192.785 -2.09644 201.64 -12.5022 191.385" stroke="url(#paint31_linear_2035_291)"/>
<path d="M5.48443 171.095C11.125 178.628 10.7025 183.527 8.26014 188.156C5.81783 192.785 -2.09644 201.64 -12.5022 191.385" stroke="url(#paint32_linear_2035_291)"/>
<path d="M5.48443 171.095C11.125 178.628 10.7025 183.527 8.26014 188.156C5.81783 192.785 -2.09644 201.64 -12.5022 191.385" stroke="url(#paint33_linear_2035_291)"/>
<path d="M-6.20652 166.404C8.50787 167.846 13.0233 177.619 8.5457 186.106C4.06813 194.593 -5.7121 196.201 -16.1179 185.945" stroke="url(#paint34_linear_2035_291)"/>
<path d="M-17.7756 186.768C-18.3479 189.039 -20.1688 215.136 -6.73713 223.969C6.69451 232.802 28.4516 222.404 43.0609 207.923" stroke="url(#paint35_linear_2035_291)"/>
<path d="M-17.3107 201.956C-8.58756 235.458 24.4295 219.579 38.4537 211.481C50.1943 204.702 45.3391 193.362 60.2999 174.494" stroke="white"/>
<path d="M27.3943 233.739C40.1464 239.439 67.1637 243.269 73.2162 212.99C80.782 175.141 77.7259 161.954 69.77 150.722" stroke="url(#paint36_linear_2035_291)"/>
<path d="M-6.02026 116.878C-0.903568 115.213 17.5994 100.469 43.5986 118.803C64.3981 133.47 76.0917 161.996 79.3385 174.425" stroke="url(#paint37_linear_2035_291)"/>
<path d="M11.5256 197.98C16.3344 198.534 25.9107 193.64 25.7456 169.625M2.9454 198.661C12.0381 201.699 35.0931 191.213 16.7609 149.127" stroke="url(#paint38_linear_2035_291)"/>
<defs>
<linearGradient id="paint0_linear_2035_291" x1="63.0658" y1="95.6176" x2="-73.0683" y2="31.8068" gradientUnits="userSpaceOnUse">
<stop stop-color="#828B3A"/>
<stop offset="1" stop-color="#B5C37F"/>
</linearGradient>
<linearGradient id="paint1_linear_2035_291" x1="127.131" y1="146.146" x2="238.911" y2="45.6003" gradientUnits="userSpaceOnUse">
<stop stop-color="#828B3A"/>
<stop offset="1" stop-color="#B5C37F"/>
</linearGradient>
<linearGradient id="paint2_linear_2035_291" x1="54.5792" y1="152.078" x2="132.021" y2="318.087" gradientUnits="userSpaceOnUse">
<stop stop-color="#828B3A"/>
<stop offset="1" stop-color="#B5C37F"/>
</linearGradient>
<linearGradient id="paint3_linear_2035_291" x1="124.881" y1="74.7437" x2="140.408" y2="89.7635" gradientUnits="userSpaceOnUse">
<stop stop-color="white" stop-opacity="0"/>
<stop offset="1" stop-color="white"/>
</linearGradient>
<linearGradient id="paint4_linear_2035_291" x1="72.0201" y1="62.9318" x2="101.307" y2="91.2626" gradientUnits="userSpaceOnUse">
<stop stop-color="white" stop-opacity="0"/>
<stop offset="1" stop-color="white"/>
</linearGradient>
<linearGradient id="paint5_linear_2035_291" x1="72.0201" y1="62.9318" x2="101.307" y2="91.2626" gradientUnits="userSpaceOnUse">
<stop stop-color="white" stop-opacity="0"/>
<stop offset="1" stop-color="white"/>
</linearGradient>
<linearGradient id="paint6_linear_2035_291" x1="109.739" y1="35.4521" x2="90.5914" y2="148.482" gradientUnits="userSpaceOnUse">
<stop stop-color="white"/>
<stop offset="1" stop-color="#DA616C"/>
</linearGradient>
<linearGradient id="paint7_linear_2035_291" x1="77.9943" y1="96.0009" x2="105.544" y2="101.57" gradientUnits="userSpaceOnUse">
<stop stop-color="#D9D9D9" stop-opacity="0.37"/>
<stop offset="0.154167" stop-color="#DEA5AB" stop-opacity="0.713219"/>
<stop offset="1" stop-color="#E27A84"/>
</linearGradient>
<linearGradient id="paint8_linear_2035_291" x1="17.3738" y1="0" x2="17.3738" y2="32.0196" gradientUnits="userSpaceOnUse">
<stop stop-color="#F48C94"/>
<stop offset="0.945833" stop-color="#B56C75"/>
</linearGradient>
<linearGradient id="paint9_linear_2035_291" x1="92.7556" y1="65.7776" x2="95.6112" y2="73.2726" gradientUnits="userSpaceOnUse">
<stop stop-color="#F5B7BE"/>
<stop offset="1" stop-color="#EE9CA5" stop-opacity="0"/>
</linearGradient>
<linearGradient id="paint10_linear_2035_291" x1="85.3016" y1="59.669" x2="121.649" y2="94.8295" gradientUnits="userSpaceOnUse">
<stop stop-color="#F1B7AD"/>
<stop offset="1" stop-color="#F2B9AE"/>
</linearGradient>
<linearGradient id="paint11_linear_2035_291" x1="135.249" y1="46.7585" x2="112.263" y2="73.2222" gradientUnits="userSpaceOnUse">
<stop offset="0.0104167" stop-color="white" stop-opacity="0"/>
<stop offset="0.239583" stop-color="white"/>
<stop offset="0.817708" stop-color="white"/>
<stop offset="1" stop-color="white" stop-opacity="0"/>
</linearGradient>
<linearGradient id="paint12_linear_2035_291" x1="143.657" y1="56.3811" x2="99.6406" y2="121.577" gradientUnits="userSpaceOnUse">
<stop offset="0.0104167" stop-color="white" stop-opacity="0"/>
<stop offset="0.239583" stop-color="white"/>
<stop offset="0.817708" stop-color="white"/>
<stop offset="1" stop-color="white" stop-opacity="0"/>
</linearGradient>
<linearGradient id="paint13_linear_2035_291" x1="84.3143" y1="51.7918" x2="109.673" y2="75.3038" gradientUnits="userSpaceOnUse">
<stop offset="0.0104167" stop-color="white" stop-opacity="0"/>
<stop offset="0.239583" stop-color="white"/>
<stop offset="0.817708" stop-color="white"/>
<stop offset="1" stop-color="white" stop-opacity="0"/>
</linearGradient>
<linearGradient id="paint14_linear_2035_291" x1="84.3143" y1="51.7918" x2="109.673" y2="75.3038" gradientUnits="userSpaceOnUse">
<stop offset="0.0104167" stop-color="white" stop-opacity="0"/>
<stop offset="0.239583" stop-color="white"/>
<stop offset="0.817708" stop-color="white"/>
<stop offset="1" stop-color="white" stop-opacity="0"/>
</linearGradient>
<linearGradient id="paint15_linear_2035_291" x1="84.3143" y1="51.7918" x2="109.673" y2="75.3038" gradientUnits="userSpaceOnUse">
<stop offset="0.0104167" stop-color="white" stop-opacity="0"/>
<stop offset="0.239583" stop-color="white"/>
<stop offset="0.817708" stop-color="white"/>
<stop offset="1" stop-color="white" stop-opacity="0"/>
</linearGradient>
<linearGradient id="paint16_linear_2035_291" x1="103.883" y1="58.2517" x2="102.275" y2="88.5962" gradientUnits="userSpaceOnUse">
<stop offset="0.0104167" stop-color="white" stop-opacity="0"/>
<stop offset="0.279167" stop-color="white"/>
<stop offset="0.817708" stop-color="white"/>
<stop offset="1" stop-color="white" stop-opacity="0"/>
</linearGradient>
<linearGradient id="paint17_linear_2035_291" x1="79.0373" y1="47.8293" x2="89.3454" y2="93.8141" gradientUnits="userSpaceOnUse">
<stop offset="0.0187499" stop-color="white" stop-opacity="0.07"/>
<stop offset="0.560417" stop-color="white"/>
<stop offset="1" stop-color="white" stop-opacity="0"/>
</linearGradient>
<linearGradient id="paint18_linear_2035_291" x1="82.637" y1="85.4166" x2="84.3501" y2="151.69" gradientUnits="userSpaceOnUse">
<stop offset="0.0187499" stop-color="white" stop-opacity="0.07"/>
<stop offset="0.560417" stop-color="white"/>
<stop offset="1" stop-color="white" stop-opacity="0"/>
</linearGradient>
<linearGradient id="paint19_linear_2035_291" x1="159.528" y1="56.9906" x2="181.286" y2="96.3396" gradientUnits="userSpaceOnUse">
<stop offset="0.0187499" stop-color="white" stop-opacity="0.07"/>
<stop offset="0.560417" stop-color="white"/>
<stop offset="1" stop-color="white" stop-opacity="0"/>
</linearGradient>
<linearGradient id="paint20_linear_2035_291" x1="88.8111" y1="68.23" x2="87.2752" y2="93.885" gradientUnits="userSpaceOnUse">
<stop offset="0.0187499" stop-color="white" stop-opacity="0.07"/>
<stop offset="0.560417" stop-color="white"/>
<stop offset="1" stop-color="white" stop-opacity="0"/>
</linearGradient>
<linearGradient id="paint21_linear_2035_291" x1="11.8211" y1="148.598" x2="29.1134" y2="135.65" gradientUnits="userSpaceOnUse">
<stop stop-color="white" stop-opacity="0"/>
<stop offset="1" stop-color="white"/>
</linearGradient>
<linearGradient id="paint22_linear_2035_291" x1="-8.22537" y1="198.916" x2="24.392" y2="174.493" gradientUnits="userSpaceOnUse">
<stop stop-color="white" stop-opacity="0"/>
<stop offset="1" stop-color="white"/>
</linearGradient>
<linearGradient id="paint23_linear_2035_291" x1="-8.22537" y1="198.916" x2="24.392" y2="174.493" gradientUnits="userSpaceOnUse">
<stop stop-color="white" stop-opacity="0"/>
<stop offset="1" stop-color="white"/>
</linearGradient>
<linearGradient id="paint24_linear_2035_291" x1="-29.3746" y1="157.316" x2="79.1877" y2="194.148" gradientUnits="userSpaceOnUse">
<stop stop-color="white"/>
<stop offset="1" stop-color="#DA616C"/>
</linearGradient>
<linearGradient id="paint25_linear_2035_291" x1="25.3723" y1="198.262" x2="35.2407" y2="171.945" gradientUnits="userSpaceOnUse">
<stop stop-color="#D9D9D9" stop-opacity="0.37"/>
<stop offset="0.154167" stop-color="#DEA5AB" stop-opacity="0.713219"/>
<stop offset="1" stop-color="#E27A84"/>
</linearGradient>
<linearGradient id="paint26_linear_2035_291" x1="17.3738" y1="0" x2="17.3738" y2="32.0196" gradientUnits="userSpaceOnUse">
<stop stop-color="#F48C94"/>
<stop offset="0.945833" stop-color="#B56C75"/>
</linearGradient>
<linearGradient id="paint27_linear_2035_291" x1="-2.12685" y1="178.894" x2="5.72623" y2="177.263" gradientUnits="userSpaceOnUse">
<stop stop-color="#F5B7BE"/>
<stop offset="1" stop-color="#EE9CA5" stop-opacity="0"/>
</linearGradient>
<linearGradient id="paint28_linear_2035_291" x1="-9.34021" y1="185.285" x2="31.1403" y2="154.974" gradientUnits="userSpaceOnUse">
<stop stop-color="#F1B7AD"/>
<stop offset="1" stop-color="#F2B9AE"/>
</linearGradient>
<linearGradient id="paint29_linear_2035_291" x1="-14.1652" y1="133.921" x2="8.31751" y2="160.814" gradientUnits="userSpaceOnUse">
<stop offset="0.0104167" stop-color="white" stop-opacity="0"/>
<stop offset="0.239583" stop-color="white"/>
<stop offset="0.817708" stop-color="white"/>
<stop offset="1" stop-color="white" stop-opacity="0"/>
</linearGradient>
<linearGradient id="paint30_linear_2035_291" x1="-3.33075" y1="127.147" x2="54.0581" y2="180.947" gradientUnits="userSpaceOnUse">
<stop offset="0.0104167" stop-color="white" stop-opacity="0"/>
<stop offset="0.239583" stop-color="white"/>
<stop offset="0.817708" stop-color="white"/>
<stop offset="1" stop-color="white" stop-opacity="0"/>
</linearGradient>
<linearGradient id="paint31_linear_2035_291" x1="-17.275" y1="185.01" x2="9.96145" y2="163.702" gradientUnits="userSpaceOnUse">
<stop offset="0.0104167" stop-color="white" stop-opacity="0"/>
<stop offset="0.239583" stop-color="white"/>
<stop offset="0.817708" stop-color="white"/>
<stop offset="1" stop-color="white" stop-opacity="0"/>
</linearGradient>
<linearGradient id="paint32_linear_2035_291" x1="-17.275" y1="185.01" x2="9.96145" y2="163.702" gradientUnits="userSpaceOnUse">
<stop offset="0.0104167" stop-color="white" stop-opacity="0"/>
<stop offset="0.239583" stop-color="white"/>
<stop offset="0.817708" stop-color="white"/>
<stop offset="1" stop-color="white" stop-opacity="0"/>
</linearGradient>
<linearGradient id="paint33_linear_2035_291" x1="-17.275" y1="185.01" x2="9.96145" y2="163.702" gradientUnits="userSpaceOnUse">
<stop offset="0.0104167" stop-color="white" stop-opacity="0"/>
<stop offset="0.239583" stop-color="white"/>
<stop offset="0.817708" stop-color="white"/>
<stop offset="1" stop-color="white" stop-opacity="0"/>
</linearGradient>
<linearGradient id="paint34_linear_2035_291" x1="-7.7924" y1="166.714" x2="21.913" y2="173.115" gradientUnits="userSpaceOnUse">
<stop offset="0.0104167" stop-color="white" stop-opacity="0"/>
<stop offset="0.279167" stop-color="white"/>
<stop offset="0.817708" stop-color="white"/>
<stop offset="1" stop-color="white" stop-opacity="0"/>
</linearGradient>
<linearGradient id="paint35_linear_2035_291" x1="-22.0246" y1="189.591" x2="25.013" y2="186.708" gradientUnits="userSpaceOnUse">
<stop offset="0.0187499" stop-color="white" stop-opacity="0.07"/>
<stop offset="0.560417" stop-color="white"/>
<stop offset="1" stop-color="white" stop-opacity="0"/>
</linearGradient>
<linearGradient id="paint36_linear_2035_291" x1="15.6585" y1="191.999" x2="81.3645" y2="200.819" gradientUnits="userSpaceOnUse">
<stop offset="0.0187499" stop-color="white" stop-opacity="0.07"/>
<stop offset="0.560417" stop-color="white"/>
<stop offset="1" stop-color="white" stop-opacity="0"/>
</linearGradient>
<linearGradient id="paint37_linear_2035_291" x1="-0.212114" y1="111.574" x2="42.09" y2="96.3321" gradientUnits="userSpaceOnUse">
<stop offset="0.0187499" stop-color="white" stop-opacity="0.07"/>
<stop offset="0.560417" stop-color="white"/>
<stop offset="1" stop-color="white" stop-opacity="0"/>
</linearGradient>
<linearGradient id="paint38_linear_2035_291" x1="-0.331464" y1="183.178" x2="24.7552" y2="188.763" gradientUnits="userSpaceOnUse">
<stop offset="0.0187499" stop-color="white" stop-opacity="0.07"/>
<stop offset="0.560417" stop-color="white"/>
<stop offset="1" stop-color="white" stop-opacity="0"/>
</linearGradient>
</defs>
</svg>
