<svg width="103" height="47" viewBox="0 0 103 47" fill="none" xmlns="http://www.w3.org/2000/svg">
<path d="M23.584 32C23.4823 32 23.4315 31.8984 23.4315 31.6951C23.4315 31.4919 23.4823 31.3903 23.584 31.3903C24.5324 31.3903 25.2438 31.3056 25.718 31.1362C26.1923 30.9668 26.548 30.6281 26.7851 30.12C27.0222 29.6119 27.2085 28.8666 27.344 27.8843L31.1041 2.52928L32.3235 0.852502L17.1817 31.6443C17.114 31.7798 16.9785 31.8476 16.7752 31.8476C16.6058 31.8137 16.4873 31.729 16.4195 31.5935L10.7286 4.46012C10.4915 3.37614 10.1189 2.5801 9.61077 2.07198C9.10266 1.56386 8.56067 1.24206 7.9848 1.10656C7.40894 0.937187 6.86695 0.852502 6.35883 0.852502C6.25721 0.852502 6.2064 0.750879 6.2064 0.547633C6.2064 0.344387 6.25721 0.242764 6.35883 0.242764C6.76533 0.242764 7.23957 0.259701 7.78156 0.293575C8.32355 0.327449 8.93329 0.344386 9.61077 0.344386C10.5593 0.344386 11.4061 0.327449 12.1514 0.293575C12.9305 0.259701 13.5063 0.242764 13.8789 0.242764C14.2516 0.242764 14.5395 0.412136 14.7427 0.75088C14.9799 1.08962 15.217 1.80099 15.4541 2.88497L20.1796 25.2929L16.8768 30.0183L30.7484 1.51305C31.1549 0.666194 31.7816 0.242764 32.6284 0.242764C32.9333 0.242764 33.4245 0.259701 34.102 0.293575C34.7794 0.327449 35.3892 0.344386 35.9312 0.344386C36.6764 0.344386 37.2861 0.327449 37.7604 0.293575C38.2685 0.259701 38.7766 0.242764 39.2847 0.242764C39.3525 0.242764 39.3864 0.344387 39.3864 0.547633C39.3864 0.750879 39.3525 0.852502 39.2847 0.852502C38.2685 0.852502 37.4894 1.07269 36.9474 1.51305C36.4054 1.91955 36.0328 2.83415 35.8295 4.25688L32.3235 27.8843C32.1203 29.3409 32.1711 30.2893 32.476 30.7297C32.8147 31.1701 33.6108 31.3903 34.8641 31.3903C34.9658 31.3903 35.0166 31.4919 35.0166 31.6951C35.0166 31.8984 34.9658 32 34.8641 32C34.1189 32 33.2551 31.9831 32.2727 31.9492C31.3243 31.9153 30.308 31.8984 29.224 31.8984C28.1401 31.8984 27.1238 31.9153 26.1753 31.9492C25.2269 31.9831 24.3631 32 23.584 32ZM0.820371 32C0.718748 32 0.667936 31.8984 0.667936 31.6951C0.667936 31.4919 0.718748 31.3903 0.820371 31.3903C1.9721 31.3903 2.98833 30.8652 3.86907 29.8151C4.7498 28.765 5.35954 27.3423 5.69828 25.5469L10.2205 1.41143L11.44 1.51305L7.12101 25.3945C6.78226 27.2576 6.85001 28.7311 7.32425 29.8151C7.79849 30.8652 8.61148 31.3903 9.76321 31.3903C9.86483 31.3903 9.91564 31.4919 9.91564 31.6951C9.91564 31.8984 9.86483 32 9.76321 32C9.15347 32 8.45904 31.9831 7.67993 31.9492C6.9347 31.9153 6.10478 31.8984 5.19017 31.8984C4.41106 31.8984 3.64888 31.9153 2.90365 31.9492C2.19228 31.9831 1.49786 32 0.820371 32ZM49.0183 46.2781C48.1376 46.2781 47.3924 46.0579 46.7826 45.6175C46.139 45.211 45.9019 44.415 46.0713 43.2294C46.3422 41.6711 47.3246 40.892 49.0183 40.892C49.7297 40.892 50.3733 41.0445 50.9492 41.3493C51.525 41.6881 52.1178 41.9252 52.7276 42.0607C53.3373 42.1962 54.0317 41.9929 54.8108 41.451C55.5561 40.9428 56.4368 40.0621 57.453 38.8088C58.4693 37.5893 59.5194 36.1835 60.6034 34.5914C61.6873 33.0332 62.7036 31.4411 63.6521 29.8151C64.6344 28.1891 65.4643 26.7156 66.1418 25.3945C66.8193 24.0395 67.2427 23.0064 67.4121 22.295C67.717 21.0755 67.7847 20.1101 67.6154 19.3987C67.4799 18.6535 67.2427 18.0438 66.904 17.5695C66.5991 17.0953 66.2943 16.638 65.9894 16.1976C65.6845 15.7572 65.5321 15.1814 65.5321 14.47C65.5321 13.6909 65.8031 13.0642 66.3451 12.59C66.8871 12.1157 67.5984 11.8786 68.4792 11.8786C69.326 11.8786 69.9866 12.1835 70.4608 12.7932C70.9351 13.3691 71.1722 14.2498 71.1722 15.4354C71.1722 16.5194 70.8842 17.8913 70.3084 19.5512C69.7664 21.1771 69.0042 22.9555 68.0219 24.8864C67.0734 26.8172 65.9725 28.7819 64.7191 30.7805C63.4657 32.7791 62.1446 34.693 60.7558 36.5222C59.3669 38.3853 57.9612 40.0452 56.5384 41.5018C55.1157 42.9922 53.7607 44.1609 52.4735 45.0078C51.1863 45.8546 50.0346 46.2781 49.0183 46.2781ZM58.1136 38.8596C58.283 31.1023 57.8934 25.1574 56.9449 21.0247C55.9964 16.8581 54.6753 14.7749 52.9816 14.7749C52.5413 14.7749 52.1178 14.9273 51.7113 15.2322C51.3048 15.537 50.9661 15.9097 50.6951 16.35C50.6274 16.4855 50.4919 16.5363 50.2886 16.5025C50.1192 16.4347 50.0515 16.3331 50.0854 16.1976C50.6951 14.9104 51.5928 13.8772 52.7784 13.0981C53.964 12.319 55.031 11.9294 55.9795 11.9294C57.0974 11.9294 58.0797 12.4884 58.9266 13.6062C59.7734 14.6902 60.4679 16.1976 61.0099 18.1284C61.5518 20.0593 61.9245 22.2781 62.1277 24.7848C62.331 27.2915 62.3479 29.9675 62.1785 32.813L58.1136 38.8596ZM83.4432 41.8066C83.3754 41.8405 83.2907 41.7728 83.1891 41.6034C83.0875 41.434 83.0875 41.3155 83.1891 41.2477C84.7812 40.2992 86.0007 38.8765 86.8475 36.9795C87.7283 35.0826 88.4227 32.7452 88.9308 29.9675L93.453 4.3585C93.724 2.9019 93.6902 1.95342 93.3514 1.51305C93.0127 1.07269 92.1997 0.852502 90.9125 0.852502C90.8108 0.852502 90.76 0.750879 90.76 0.547633C90.76 0.344387 90.8108 0.242764 90.9125 0.242764C91.6916 0.242764 92.5384 0.276638 93.453 0.344386C94.4015 0.37826 95.4178 0.395197 96.5017 0.395197C97.6873 0.395197 98.7544 0.37826 99.7029 0.344386C100.651 0.276638 101.498 0.242764 102.243 0.242764C102.345 0.242764 102.396 0.344387 102.396 0.547633C102.396 0.750879 102.345 0.852502 102.243 0.852502C101.329 0.852502 100.634 0.954124 100.16 1.15737C99.6859 1.36062 99.3303 1.7163 99.0931 2.22441C98.8899 2.73253 98.6866 3.47777 98.4834 4.46012L94.2152 28.5956C93.741 31.2378 93.0635 33.3888 92.1828 35.0487C91.3359 36.7085 90.2011 38.0466 88.7784 39.0628C87.3557 40.079 85.5773 40.9936 83.4432 41.8066Z" fill="#C3937C"/>
</svg>
