<svg width="106" height="111" viewBox="0 0 106 111" fill="none" xmlns="http://www.w3.org/2000/svg">
<path d="M56.0405 4.79745C34.3029 7.29534 30.7634 26.274 31.7108 35.4511C35.8978 42.9813 48.641 56.6997 66.1178 51.332C83.5946 45.9644 97.4562 18.0146 102.202 4.71072C95.8583 6.63695 83.2125 1.67509 56.0405 4.79745Z" fill="url(#paint0_linear_2040_1463)"/>
<path d="M62.5076 23.1908C65.3182 19.0975 71.6249 10.4425 74.3661 8.5693" stroke="white"/>
<path d="M32.4268 35.3861C54.0136 25.3112 78.8289 19.6899 100.156 6.24969" stroke="white"/>
<path d="M42.9144 31.053C45.1092 25.2077 50.4499 12.754 54.2544 9.70077" stroke="white"/>
<path d="M38.7195 32.7858C39.5396 34.0674 44.564 43.1036 61.249 44.3134" stroke="white"/>
<path d="M56.2667 26.4637C58.3327 28.3111 68.2479 32.1631 77.5613 31.3252" stroke="white"/>
<path d="M4.52785 58.6683C6.95255 36.2748 27.3857 32.7622 37.2992 33.805C45.476 38.1761 60.4361 51.4131 54.8621 69.393C49.288 87.3729 19.3039 101.463 5.00854 106.26C7.00794 99.7336 1.49698 86.6601 4.52785 58.6683Z" fill="url(#paint1_linear_2040_1463)"/>
<path d="M24.4552 65.4678C20.0736 68.3362 10.8137 74.776 8.82672 77.5887" stroke="white"/>
<path d="M37.2382 34.543C26.6364 56.7264 20.88 82.2705 6.64384 104.162" stroke="white"/>
<path d="M32.6943 45.3242C26.4149 47.5449 13.0443 52.9615 9.7973 56.862" stroke="white"/>
<path d="M34.512 41.0118C35.905 41.8666 45.7172 47.1118 47.2301 64.3228" stroke="white"/>
<path d="M27.9092 59.0577C29.9281 61.2011 34.2076 71.4514 33.4194 81.0475" stroke="white"/>
<defs>
<linearGradient id="paint0_linear_2040_1463" x1="65.7041" y1="3.87527" x2="69.9971" y2="51.5922" gradientUnits="userSpaceOnUse">
<stop stop-color="#ACA97D"/>
<stop offset="1" stop-color="#7D7A5F"/>
</linearGradient>
<linearGradient id="paint1_linear_2040_1463" x1="38.7529" y1="33.9217" x2="7.4048" y2="105.505" gradientUnits="userSpaceOnUse">
<stop stop-color="#828B3A"/>
<stop offset="1" stop-color="#B5C37F"/>
</linearGradient>
</defs>
</svg>
